<?xml version="1.0" standalone="no"?>
<!DOCTYPE svg PUBLIC "-//W3C//DTD SVG 1.1//EN" "http://www.w3.org/Graphics/SVG/1.1/DTD/svg11.dtd" >
<svg xmlns="http://www.w3.org/2000/svg">
<metadata></metadata>
<defs>
<font id="ciclegordita" horiz-adv-x="1220" >
<font-face units-per-em="2048" ascent="1638" descent="-410" />
<missing-glyph horiz-adv-x="526" />
<glyph horiz-adv-x="2048" />
<glyph horiz-adv-x="2048" />
<glyph unicode="&#xd;" horiz-adv-x="526" />
<glyph unicode=" "  horiz-adv-x="526" />
<glyph unicode="&#x09;" horiz-adv-x="526" />
<glyph unicode="&#xa0;" horiz-adv-x="526" />
<glyph unicode="!" horiz-adv-x="360" d="M82 61q0 35 22.5 56.5t57.5 21.5q37 0 55.5 -21.5t20.5 -54.5v-2q0 -31 -21.5 -55t-54.5 -24q-35 0 -57.5 24.5t-22.5 54.5zM94 190v1205h133v-1205h-133z" />
<glyph unicode="&#x22;" horiz-adv-x="444" d="M43 1395h156l18 -158l-96 -209l-55 55zM186 1395h158l16 -158l-96 -209l-55 55z" />
<glyph unicode="#" horiz-adv-x="1462" d="M14 784l121 150h328q20 53 39.5 104.5t40.5 102.5q14 39 31.5 82t31.5 80h154l-137 -369h391q23 63 48 128.5t48 127.5q10 27 21.5 57.5t21.5 55.5h156l-138 -369h250l-121 -150h-178q-6 -18 -13 -35.5t-13 -35.5q-16 -41 -28.5 -68t-27.5 -70h383l-125 -151h-311 q-18 -49 -36.5 -98.5t-37.5 -100.5q-18 -53 -39.5 -114.5t-39.5 -110.5h-160l157 424h-395q-23 -66 -46 -133.5t-50 -136.5v2q-12 -37 -28.5 -79t-28.5 -77h-158l158 424h-267l123 151h195q12 37 29.5 80t29.5 82q8 16 9 21.5t10 25.5h-398zM492 575h395q8 23 15 47.5 t18 49.5q12 29 22 54.5t21 57.5h-392z" />
<glyph unicode="$" horiz-adv-x="954" d="M41 201l117 94q41 -57 100 -105.5t131 -56.5v494q-78 16 -140.5 52t-107.5 86t-68.5 112.5t-23.5 134.5q0 70 25.5 132t72 111.5t108.5 84t134 51.5v92h148v-82q104 -6 190 -56.5t156 -127.5l-117 -95q-47 53 -105.5 89t-123.5 44v-507q76 -18 139 -53.5t108 -85.5 t71 -112.5t26 -131.5q0 -68 -28 -130.5t-74 -111.5t-109.5 -84t-132.5 -49v-117h-148v113q-106 12 -197.5 70.5t-150.5 144.5zM203 1018q0 -78 49 -142.5t137 -93.5v459q-82 -27 -134 -86t-52 -137zM537 139q84 18 138 76.5t54 142.5q0 82 -54 149.5t-138 94.5v-463z" />
<glyph unicode="&#x26;" horiz-adv-x="1222" d="M66 395q0 115 85 219.5t236 180.5q2 0 4 1t6 1q-2 2 -2 4l2 -2q-2 2 -2 3t-2 3q-53 55 -83.5 98t-46 78t-20.5 63.5t-5 57.5q0 57 23.5 111.5t66.5 96.5t104.5 67.5t136.5 25.5q70 0 127.5 -23.5t99.5 -62.5t64.5 -92.5t22.5 -110.5q0 -94 -61.5 -174t-196.5 -154l-7 -4 q41 -49 75 -95t75 -95q29 -35 54.5 -69t54.5 -68q2 4 3 5t3 5q16 33 32.5 77t32.5 109l164 -33q-31 -92 -61.5 -167.5t-63.5 -126.5q0 -4 -2 -13q0 -2 -1 -2t-1 -2v-4q14 -23 24.5 -39t23.5 -31.5t31.5 -32t47.5 -40.5v-172q-84 53 -124 91t-75 81q-12 16 -14 18l-8 12 l-8 -8q-82 -90 -178 -137t-209 -45q-92 0 -171 31.5t-136.5 86t-89 126t-31.5 151.5zM233 406q0 -49 19.5 -96.5t53.5 -86.5t82 -62.5t106 -23.5q39 0 79.5 12.5t79.5 35t73 53t58 65.5l4 4q-49 59 -94 118.5t-92 117.5q-35 43 -62.5 76.5t-62.5 78.5l-6 -4 q-129 -74 -183.5 -143.5t-54.5 -144.5zM395 1118q4 -74 66 -145l80 -92q2 0 3 1t3 1h-2q104 59 141 110t37 119t-45 117t-119 49q-66 0 -115 -47t-49 -113zM942 297l4 -14l39 4l-2 10h-41z" />
<glyph unicode="'" horiz-adv-x="247" d="M8 1094l70 143l-19 145l158 13l19 -164l-177 -189z" />
<glyph unicode="(" horiz-adv-x="532" d="M66 588q0 133 19 259t53 235.5t81 198.5t105 149l63 -160q-37 -47 -67.5 -117t-52 -159t-33 -192.5t-11.5 -213.5q0 -123 14.5 -233.5t40 -204t61.5 -164t79 -111.5l-86 -137q-59 57 -107.5 145t-84.5 199t-55 239t-19 267z" />
<glyph unicode=")" horiz-adv-x="503" d="M80 -123q43 41 79 111.5t60.5 163t38.5 203t14 233.5q0 111 -11 214t-32.5 192t-51.5 159t-68 117l59 160q57 -61 105.5 -151.5t84 -199t55 -234.5t19.5 -257q0 -139 -20.5 -267t-55 -239t-84 -198t-106.5 -144z" />
<glyph unicode="*" horiz-adv-x="964" d="M109 1036v146h186l-133 133l104 104l131 -131v187h146v-187l133 131l104 -102l-131 -133h187v-148h-191q10 -12 21.5 -21t23.5 -22l90 -90l-102 -102l-135 135v-193h-146v189q-31 -31 -68.5 -68t-62.5 -63l-106 102l135 133h-186z" />
<glyph unicode="+" horiz-adv-x="925" d="M90 524v148h289v291h147v-291h291v-148h-291v-291h-147v291h-289z" />
<glyph unicode="," horiz-adv-x="354" d="M41 -86l80 129v147h158v-172l-197 -170z" />
<glyph unicode="-" horiz-adv-x="862" d="M61 524v148h730v-148h-730z" />
<glyph unicode="." horiz-adv-x="296" d="M53 0v190h191v-190h-191z" />
<glyph unicode="/" horiz-adv-x="774" d="M53 0l510 1395h156l-510 -1395h-156z" />
<glyph unicode="0" horiz-adv-x="1200" d="M68 692q0 147 42 276.5t112.5 226.5t165.5 152.5t202 55.5q106 0 200.5 -55.5t165 -152.5t110.5 -226t40 -277q0 -145 -40 -275t-110.5 -226.5t-165 -152.5t-200.5 -56t-201.5 56t-166 152.5t-112.5 226.5t-42 275zM217 692q0 -117 28.5 -219t80 -178t119 -120t145.5 -44 t145.5 44t117.5 120t79 178t29 219t-29 219.5t-79 178t-117.5 119.5t-145.5 44t-145.5 -44t-119 -119.5t-80 -178t-28.5 -219.5z" />
<glyph unicode="1" horiz-adv-x="538" d="M31 1163l278 232h125v-1395h-147v1186q-33 -29 -66 -54.5t-65 -52.5q-4 -2 -10.5 -8t-10.5 -10z" />
<glyph unicode="2" horiz-adv-x="972" d="M90 1253q74 66 161 108t179 42q94 0 176 -36t143.5 -96.5t96.5 -141t35 -171.5q0 -88 -34 -164.5t-87 -136.5l-451 -512h572v-145h-789v127l567 635q35 39 55.5 89t20.5 107q0 61 -23.5 115.5t-65.5 94.5t-97 62.5t-119 22.5q-59 0 -119.5 -27.5t-113.5 -78.5z" />
<glyph unicode="3" horiz-adv-x="882" d="M18 147l103 103q49 -53 116.5 -89t139.5 -36q59 0 112.5 20.5t93.5 55.5t62.5 83t22.5 101q0 43 -23.5 84t-61.5 75t-87.5 58.5t-98.5 34.5h-207v147h211q57 2 106.5 22.5t86.5 52.5t57.5 73t20.5 86q0 49 -22.5 93t-62.5 76t-92.5 50t-111.5 18q-72 0 -140.5 -31.5 t-121.5 -90.5l-101 108q72 78 166.5 120t196.5 42q90 0 171 -30t141.5 -82t95 -122.5t34.5 -150.5q0 -98 -53 -179t-139 -132q84 -55 133 -136.5t49 -185.5q0 -86 -33.5 -159.5t-93 -129t-139.5 -87.5t-172 -32q-104 0 -198.5 47.5t-160.5 122.5z" />
<glyph unicode="4" horiz-adv-x="968" d="M53 487l4 125l459 793l129 -70l-405 -700h301v295h149v-295h189v-148h-189v-487h-149v487h-488z" />
<glyph unicode="5" horiz-adv-x="1032" d="M76 676l51 719h772v-150h-631q-4 -37 -7 -69.5t-7 -67.5q-2 -25 -4 -44.5t-3 -37.5t-3 -38.5t-6 -49.5q53 39 118.5 59.5t137.5 20.5q96 0 180 -40t145.5 -108.5t97 -161t35.5 -196.5q0 -106 -35.5 -199.5t-97 -163t-145.5 -109.5t-180 -40q-113 0 -214.5 60.5 t-166.5 164.5l106 107q51 -86 123 -136.5t152 -50.5q63 0 120.5 29t99.5 79t66.5 116.5t24.5 142.5t-24.5 141.5t-66.5 114.5t-99.5 76.5t-120.5 27.5q-90 0 -165 -53t-116 -143h-137z" />
<glyph unicode="6" horiz-adv-x="1036" d="M88 672v41q0 88 5 168t22 151q14 76 53 143.5t95 117.5t128 79t152 31q111 0 213 -53.5t180 -157.5l-141 -82q-47 66 -114 105.5t-136 39.5q-53 0 -102.5 -19t-88.5 -54t-66.5 -83t-35.5 -104q-23 -129 -25 -270q53 53 127 87t160 38q88 0 168 -31t141.5 -87t98 -133 t36.5 -169v-18q0 -90 -33.5 -169t-92 -136.5t-137.5 -90t-171 -32.5q-86 0 -162.5 31.5t-134 89t-92.5 134t-39 167.5v-3q-6 63 -7 133t-1 136zM242 408q0 -59 23.5 -109.5t62.5 -88.5t91 -59.5t109 -21.5q59 0 111.5 21.5t91.5 60.5t61.5 89t22.5 110v16q-2 57 -25.5 108.5 t-62.5 88t-91 58t-112 21.5q-59 0 -111.5 -23.5t-90 -64.5t-59 -94t-21.5 -112z" />
<glyph unicode="7" horiz-adv-x="907" d="M47 0l582 1245h-518v150h755l-651 -1395h-168z" />
<glyph unicode="8" horiz-adv-x="940" d="M43 401q0 109 52 200t134 149q-141 100 -141 286q0 76 29.5 142.5t81 117t119 79t143.5 28.5q80 0 149.5 -28.5t119.5 -79t80 -117t30 -142.5q0 -92 -37 -164.5t-105 -121.5q86 -55 134.5 -146.5t48.5 -202.5q0 -86 -32 -162.5t-89.5 -133t-134 -90t-164.5 -33.5 q-86 0 -162 33.5t-132 90t-90 133t-34 162.5zM193 401q0 -55 21.5 -104t58 -86t85 -58.5t103.5 -21.5q57 0 107 21.5t87 58.5t58.5 86t21.5 104t-21.5 105.5t-58.5 87.5t-87 58.5t-107 21.5q-55 0 -103.5 -21.5t-85 -58.5t-58 -87.5t-21.5 -105.5zM233 1036q0 -45 18.5 -85 t49.5 -68.5t72 -46t88 -17.5t89 17.5t72.5 46t49 68.5t18.5 85t-18.5 85t-49 69t-72.5 46t-89 17t-88 -17t-72 -46t-49.5 -69t-18.5 -85z" />
<glyph unicode="9" horiz-adv-x="1001" d="M59 958v13q0 88 34 167t92.5 137t137 93t169.5 35q88 0 163.5 -34t134 -92t95.5 -135t43 -163q4 -61 5 -134t1 -138v-52q0 -80 -5 -154.5t-20 -144.5q-16 -82 -57 -150.5t-102.5 -117.5t-137 -75.5t-157.5 -26.5q-102 0 -199.5 54t-167.5 142l131 109q49 -74 115.5 -114 t134.5 -40q117 0 198 73t105 179v-2q8 63 13.5 133t7.5 142q-59 -53 -137 -86t-169 -33q-86 0 -162.5 31.5t-135 88t-94.5 132t-36 163.5zM201 963q2 -57 26.5 -107.5t62.5 -87.5t89 -58.5t108 -21.5q61 0 113.5 22.5t92.5 61.5t62.5 91t22.5 112q0 57 -23.5 107.5t-62.5 88 t-91 60t-107 22.5q-61 0 -114.5 -23.5t-93.5 -63.5t-62.5 -93t-22.5 -110z" />
<glyph unicode=":" horiz-adv-x="372" d="M90 0v190h191v-190h-191zM90 838v188h191v-188h-191z" />
<glyph unicode=";" horiz-adv-x="346" d="M18 -86l82 129v147h160v-172l-201 -170zM90 838v188h186v-188h-186z" />
<glyph unicode="&#x3c;" horiz-adv-x="675" d="M20 510l512 518l107 -102l-412 -416l191 -191q53 -53 112.5 -110t108.5 -107l-104 -106z" />
<glyph unicode="=" horiz-adv-x="901" d="M117 385v150h708v-150h-708zM117 756v151h708v-151h-708z" />
<glyph unicode="&#x3e;" horiz-adv-x="688" d="M41 102l412 408q-49 49 -96.5 94t-96.5 98l-53.5 53.5t-59 59.5t-58.5 59.5t-48 51.5l104 102l514 -518l-514 -514z" />
<glyph unicode="?" horiz-adv-x="839" d="M45 1200q57 92 143 147.5t187 55.5q80 0 149.5 -32t121.5 -86t82 -126t30 -153q0 -78 -30 -149t-80 -124t-118.5 -85t-148.5 -32h-59q10 -31 19 -62.5t19 -64.5q35 -117 74 -250t72 -239h-160l-180 639v123h215q49 2 91 21.5t74 51t50 75.5t18 96q0 51 -19.5 97t-51 80 t-75.5 53t-93 19q-66 0 -125.5 -44t-99.5 -115zM377 -152q0 39 25.5 61.5t58.5 22.5q39 0 61.5 -22.5t22.5 -61.5q0 -35 -22.5 -62.5t-61.5 -27.5q-33 0 -58.5 27.5t-25.5 62.5z" />
<glyph unicode="@" horiz-adv-x="1544" d="M86 659q0 158 50 294.5t143.5 235.5t223.5 156.5t290 57.5q121 0 232.5 -39t196.5 -112.5t136 -180t51 -242.5q0 -92 -30.5 -187t-86 -173t-131.5 -132t-166 -67q-29 2 -72.5 8.5t-76.5 34.5q-33 -20 -75 -34.5t-83 -14.5q-59 0 -109.5 22.5t-87 60.5t-58 90t-21.5 112 q0 59 21.5 110.5t60 89t90 59t110.5 21.5h121q-2 59 -12 103.5t-45 44.5q-41 0 -65.5 -3t-59.5 -16l-45 -2l-37 152l47 2q39 12 75 16t87 4q51 -2 87 -25.5t60.5 -63.5t37.5 -93t20 -112q-2 -45 -2 -95q-2 -41 -2 -92v-104v-24.5t-3 -24.5v2q-4 -29 1.5 -52.5t46.5 -23.5 q18 0 42.5 13.5t52 36t52.5 54t43 68.5q10 20 19.5 51t15.5 64.5t10 65.5t4 56q0 82 -33.5 156t-94 129t-144.5 88t-187 33q-117 0 -215 -43t-169.5 -119t-112.5 -179t-41 -224q0 -238 145.5 -371t411.5 -133q166 0 284.5 60.5t178.5 150.5h188l-29 -66q-33 -61 -90 -117.5 t-136 -99.5t-178 -68.5t-216 -25.5q-160 0 -292 42t-227 125t-148.5 206t-53.5 284zM545 549q0 -59 42 -99t101 -40q57 0 98 39.5t41 99.5v137h-133q-61 0 -105 -39t-44 -98z" />
<glyph unicode="A" d="M31 0l522 1415h113l522 -1415h-156l-207 559h-430q-33 -88 -66.5 -179t-68.5 -183q-18 -47 -38.5 -99.5t-37.5 -97.5h-153zM449 709h321q-16 47 -38.5 105t-39.5 104v-3q-12 33 -22.5 58.5t-19.5 50.5t-19 51.5t-23 63.5q-16 -39 -32.5 -82t-28.5 -82v-2 q-29 -72 -49.5 -129.5t-48.5 -134.5z" />
<glyph unicode="B" horiz-adv-x="1048" d="M86 0v1415h463q82 -2 152.5 -31.5t123 -80t83 -116t30.5 -136.5q0 -94 -42 -170t-114 -129q84 -55 134.5 -144.5t50.5 -191.5q0 -84 -32 -158t-88 -130t-132 -89t-164 -35h2l-39 -4h-428zM233 150h316q55 2 104 24.5t86 59t57.5 82.5t20.5 100q0 51 -20.5 97t-57.5 81 t-86 57.5t-106 24.5h-314v-526zM233 825h316q51 2 95 19.5t77 47.5t51.5 71t18.5 88q0 43 -18.5 81.5t-51.5 67.5t-78 47.5t-96 22.5h-314v-445z" />
<glyph unicode="C" horiz-adv-x="1208" d="M39 707q0 143 50 273t138 228.5t206 156.5t253 58q129 0 250 -59t215 -162l-104 -102q-78 82 -170.5 128t-190.5 46q-102 0 -192.5 -44t-158 -121t-106.5 -180.5t-39 -221.5q0 -117 38 -221.5t103.5 -182.5t157 -124t197.5 -46q98 0 188.5 46t169.5 126l103 -102 q-98 -102 -216 -161.5t-245 -59.5q-129 0 -245.5 57t-206 156.5t-142.5 231.5t-53 280z" />
<glyph unicode="D" horiz-adv-x="1177" d="M53 0v1415h533q104 -2 196 -57t161 -150.5t108 -223.5t39 -273t-39 -273.5t-106.5 -224.5t-159 -152.5t-195.5 -60.5h-537zM203 150h93t93 2q51 0 101.5 1t99.5 1q72 2 135 47t111.5 119.5t76 175t27.5 215.5t-27.5 215t-76 175t-113 119t-137.5 46h-383v-1116z" />
<glyph unicode="E" horiz-adv-x="993" d="M68 0v1415h843v-145h-696v-445h594v-149h-594v-526h696v-150h-843z" />
<glyph unicode="F" horiz-adv-x="997" d="M76 0v1415h844v-143h-697v-447h594v-149h-594v-676h-147z" />
<glyph unicode="G" horiz-adv-x="1236" d="M33 700q0 150 51 281t139 229.5t206 155.5t253 57q129 0 249 -58t218 -163l-105 -104q-78 82 -171 128t-191 46q-104 0 -195.5 -44t-159 -122t-107.5 -182.5t-40 -223.5q0 -117 40 -221t107.5 -183t159 -124t195.5 -45q86 0 164 34t139 87v338h-371v145h521v-530l-5 -21 q-92 -94 -205.5 -146t-242.5 -52q-135 0 -253 57t-206 154.5t-139 228.5t-51 278z" />
<glyph unicode="H" horiz-adv-x="1142" d="M78 0v1415h149v-590h676v590h148v-1415h-148v676h-676v-676h-149z" />
<glyph unicode="I" horiz-adv-x="282" d="M68 0v1415h149v-1415h-149z" />
<glyph unicode="J" horiz-adv-x="624" d="M29 98l98 103q29 -29 55.5 -49.5t50.5 -20.5q55 0 94.5 64.5t39.5 162.5v1057h151v-1053q0 -78 -23.5 -146.5t-62.5 -120.5t-90 -82.5t-109 -30.5q-55 0 -107 32.5t-97 83.5z" />
<glyph unicode="K" horiz-adv-x="1193" d="M68 0v1415h149v-672q145 166 291.5 336t288.5 336h200l-532 -620q80 -94 166 -194.5t175 -203t175 -204t166 -193.5h-197l-585 682q-16 -20 -33 -39.5t-35 -40.5q-20 -25 -38.5 -48.5t-41.5 -45.5v-508h-149z" />
<glyph unicode="L" horiz-adv-x="927" d="M66 0v1415h147v-1265h659v-150h-806z" />
<glyph unicode="M" horiz-adv-x="1275" d="M49 0v1415h135l428 -719l418 719h137v-1415h-151v1098q-90 -152 -182.5 -311.5t-178.5 -309.5h-92l-364 621v-1098h-150z" />
<glyph unicode="N" horiz-adv-x="1099" d="M74 0v1415h133l645 -1091v1091h149v-1415h-135l-645 1098v-1098h-147z" />
<glyph unicode="O" horiz-adv-x="1413" d="M41 707q0 150 51 279.5t138 227t205 153.5t253 56q139 0 257 -56t204 -152.5t135 -227.5t49 -280q0 -160 -51 -293.5t-145 -233.5q-88 -96 -202 -147t-247 -51q-129 0 -246.5 55t-207 152.5t-141.5 230.5t-52 287zM193 707q0 -119 38.5 -223.5t105 -182.5t157 -123 t194.5 -45q106 0 197.5 45t159 123t105.5 182.5t38 223.5q0 125 -42 232t-118 183q-66 72 -154 111t-186 39q-102 0 -192 -44t-158 -121t-106.5 -179.5t-38.5 -220.5z" />
<glyph unicode="P" horiz-adv-x="983" d="M84 0v1415h420q86 0 161.5 -28.5t132 -79t89.5 -117t33 -139.5q0 -80 -33 -148.5t-89.5 -119t-132 -80t-161.5 -29.5h-273v-674h-147zM231 823h273q55 0 103 17.5t84 48.5t57.5 71.5t21.5 90.5q0 45 -21.5 85t-58.5 69.5t-85 47t-103 17.5h-271v-447z" />
<glyph unicode="Q" horiz-adv-x="1361" d="M57 752q0 143 48.5 266t131 213t190.5 141t228 51q123 0 232.5 -51t192.5 -142t131.5 -214t48.5 -264q0 -143 -52.5 -267.5t-138.5 -216.5q-59 -66 -136 -109.5t-163 -62.5q8 -39 20.5 -61.5t28.5 -22.5q12 0 26.5 18.5t24.5 47.5l113 -98q-39 -51 -79 -81t-85 -30 q-68 0 -120 62.5t-70 154.5q-115 10 -218.5 64.5t-182 143.5t-125 205.5t-46.5 252.5zM199 752q0 -90 24.5 -172t67.5 -148.5t103.5 -116t131.5 -73.5v133h8q81 0 138 -39q61 -41 84 -103q74 23 139.5 72t113.5 116.5t76.5 152.5t28.5 178q0 117 -38.5 217t-110.5 174 q-61 66 -139 104.5t-171 38.5q-94 0 -177 -42t-145.5 -114.5t-98 -170t-35.5 -207.5zM526 238h17q-4 2 -8.5 2t-8.5 2v-4z" />
<glyph unicode="R" horiz-adv-x="970" d="M66 0v1415h419q86 0 162 -28.5t132.5 -77.5t89 -117t32.5 -143q0 -78 -32.5 -145.5t-89 -119t-132.5 -80t-162 -28.5h-118q61 -72 127.5 -147.5t134.5 -151.5q39 -45 82 -94.5t87 -98.5t86 -96t79 -88h-195l-553 621v-621h-149zM215 825h270q55 0 103.5 17.5t84.5 47.5 t57.5 70.5t21.5 88.5q0 45 -21.5 86t-58.5 71.5t-86 48t-105 17.5h-266v-447z" />
<glyph unicode="S" horiz-adv-x="993" d="M59 205l117 94q51 -78 128 -123t171 -45q55 0 106.5 18.5t90.5 49t61.5 73.5t22.5 93q0 47 -21.5 90t-58.5 77.5t-86 59t-105 33.5q-88 12 -163.5 48t-132 90t-89 121.5t-32.5 143.5q0 84 34.5 156.5t95 125t142.5 82t174 29.5q123 0 221.5 -48t177.5 -136l-122 -98 q-53 66 -123 102.5t-154 36.5q-57 0 -110.5 -19.5t-94.5 -52t-65.5 -77t-24.5 -93.5t21.5 -95t59.5 -82t89 -59.5t111 -27.5q88 -10 162.5 -47t130 -90t86 -122t30.5 -142q0 -82 -34.5 -153t-94 -123t-139.5 -82.5t-170 -30.5q-129 0 -237.5 62t-174.5 161z" />
<glyph unicode="T" horiz-adv-x="1177" d="M63 1270v145h1031v-145h-439v-1270h-149v1270h-443z" />
<glyph unicode="U" horiz-adv-x="1224" d="M66 369v1046h155v-1042q8 -47 41 -90t84 -77t117.5 -53.5t140.5 -19.5q70 0 134.5 19.5t114.5 53.5t83 77t39 90v1042h149v-1044q-4 -80 -46 -150.5t-112.5 -124t-163.5 -84t-198 -30.5q-109 0 -205 30.5t-167.5 84t-115.5 123t-50 149.5z" />
<glyph unicode="V" horiz-adv-x="1308" d="M55 1415h154l434 -1165q43 123 88 241.5t90 241.5q63 168 128 342t124 340h156l-522 -1415h-132z" />
<glyph unicode="W" horiz-adv-x="1873" d="M68 1415h153l434 -1167q20 53 40 109.5t40 111.5v-2q25 68 48.5 131.5t47.5 130.5q-31 80 -60.5 162t-59.5 166v-2q-31 86 -66 182t-65 178h153l207 -559q29 -80 57.5 -152.5t57.5 -148.5q16 -43 29.5 -79t25.5 -71.5t26.5 -73.5t30.5 -83q41 111 81 219t83 225 q66 180 134.5 364.5t131.5 358.5h158l-522 -1415h-133l-191 514q-23 -55 -42 -112.5t-40 -114.5q-27 -70 -53 -144.5t-51 -142.5h-133z" />
<glyph unicode="X" horiz-adv-x="1107" d="M29 0l422 723l-404 692h172l330 -553q37 66 75 128.5t76 127.5q43 72 89.5 148.5t87.5 148.5h174l-412 -704q47 -80 96 -166t96 -170q51 -90 110.5 -190.5t109.5 -184.5h-174l-340 573q-49 -86 -99.5 -172t-101.5 -172q-33 -55 -69 -114.5t-66 -114.5h-172z" />
<glyph unicode="Y" horiz-adv-x="1394" d="M20 1415h195l463 -635q31 41 61.5 82t61.5 84q84 115 173 236t175 233h192l-585 -782v-633h-152v633q-37 49 -79 106.5t-83 110.5q-49 66 -105 140.5t-111.5 148t-107.5 145.5t-98 131z" />
<glyph unicode="Z" horiz-adv-x="1122" d="M23 0l788 1266h-707v149h971l-784 -1265h690v-150h-958z" />
<glyph unicode="[" horiz-adv-x="430" d="M55 641v147h74q20 0 35.5 15.5t15.5 38.5v448q8 47 61.5 76t118.5 29v-152q-12 0 -21 -3t-11 1v-426q-12 -35 -30.5 -59.5t-53.5 -30.5v-20q66 -20 84 -80v-480h32v-145q-27 0 -58.5 9t-58 25.5t-45 39t-18.5 51.5v463q0 23 -15 38t-36 15h-74z" />
<glyph unicode="\" horiz-adv-x="759" d="M53 1395h154l512 -1395h-158z" />
<glyph unicode="]" horiz-adv-x="374" d="M29 0v145q16 0 24 -1t13 1v476q16 74 77 86q0 6 1 11t1 9q-29 10 -51 32.5t-28 51.5v432h-37v152q76 0 124 -31t58 -74l4 -16v-432q0 -23 11.5 -38.5t33.5 -15.5h74v-147h-74q-23 0 -34 -15.5t-11 -37.5v-463q0 -29 -17.5 -51.5t-44 -39t-60.5 -25.5t-64 -9z" />
<glyph unicode="^" horiz-adv-x="1128" d="M31 895l520 512l514 -514l-107 -105l-409 412q-98 -94 -193 -192q-53 -53 -112.5 -111.5t-108.5 -108.5z" />
<glyph unicode="_" horiz-adv-x="1050" d="M61 0v145h877v-145h-877z" />
<glyph unicode="`" horiz-adv-x="417" d="M-27 1294h240l174 -231h-119z" />
<glyph unicode="a" horiz-adv-x="831" d="M59 303q0 72 29 132.5t77 103.5t112.5 67.5t136.5 24.5h186v6q0 104 -47 177t-125 77q-53 0 -115.5 -9.5t-130.5 -29.5l-37 143q72 20 142.5 31.5t142.5 11.5q63 -2 119.5 -30.5t99.5 -76.5t68.5 -113.5t30.5 -139.5v-21q-2 -49 -3 -102q-2 -47 -2 -104.5v-116.5 q0 -53 3.5 -105.5t10.5 -97.5t18 -80t26 -51h-201v39q-43 -29 -94 -44t-105 -15q-70 0 -132 25.5t-108 69.5t-74 102.5t-28 125.5zM207 303q0 -37 15.5 -67.5t42 -54t61 -37t75.5 -13.5t78 13.5t63.5 37t42 54t15.5 67.5v180h-186q-86 0 -146.5 -49t-60.5 -131z" />
<glyph unicode="b" horiz-adv-x="1071" d="M53 0q16 23 24.5 58.5t14.5 70.5q6 39 10 84v1182h148v-404q106 47 252 47q102 0 192 -42t157 -114.5t105.5 -168t38.5 -201.5q0 -109 -38.5 -205t-106.5 -167.5t-158 -114.5t-192 -45q-78 4 -141.5 16t-114.5 35v-31h-191zM244 213q0 -16 20.5 -31.5t55 -26t82 -17.5 t100.5 -9q70 2 133 33t110.5 82t75 120.5t27.5 147.5q0 76 -27.5 144.5t-75 120.5t-111 83t-132.5 31q-98 0 -171 -22.5t-87 -51.5v-604z" />
<glyph unicode="c" horiz-adv-x="978" d="M29 510q0 109 38.5 205t106.5 167.5t157 113.5t189 42q106 0 204.5 -51t172.5 -133l-106 -109q-55 66 -126 106t-145 40q-72 0 -134 -30t-109.5 -82t-75 -120.5t-27.5 -148.5q0 -78 27.5 -147.5t75 -121t110 -81t133.5 -29.5q72 0 139.5 36t124.5 101l109 -104 q-80 -84 -174 -133t-199 -49q-100 0 -189 42t-157 113.5t-106.5 167.5t-38.5 205z" />
<glyph unicode="d" horiz-adv-x="1093" d="M86 518q0 106 39 201.5t106.5 166t156.5 111.5t192 41q78 0 136 -10t113 -39v406h148v-1178q0 -45 8 -84q6 -35 21.5 -69.5t44.5 -57.5h-222v31q-51 -20 -116.5 -33.5t-130.5 -17.5q-102 2 -192.5 45t-158 114.5t-106.5 168t-39 204.5zM229 518q0 -78 27 -146.5 t75 -120.5t112.5 -84t138.5 -34q51 2 96 10.5t79 19.5t53 25.5t19 28.5v596q-12 29 -81.5 53.5t-167.5 24.5q-74 -2 -137.5 -33t-110.5 -82t-75 -117.5t-28 -140.5z" />
<glyph unicode="e" horiz-adv-x="933" d="M37 473v39q0 109 33.5 205t90 167.5t132.5 113.5t162 42q88 0 162.5 -39.5t130 -109.5t86 -164t30.5 -205v-80h-674q8 -68 33 -125t63 -98t87 -65.5t104 -24.5q29 0 63.5 7t69.5 19.5t69 27t62 26.5l58 -129q-66 -37 -133.5 -60.5t-135.5 -35.5q-12 -2 -27.5 -2h-25.5 q-86 0 -162.5 37.5t-137 104t-97.5 157t-43 192.5zM195 586h522q-8 66 -31.5 122t-58.5 97t-79 63.5t-93 22.5q-47 0 -89 -23.5t-77 -65.5t-59.5 -97.5t-34.5 -118.5z" />
<glyph unicode="f" horiz-adv-x="671" d="M51 856v150h144q-2 0 -2 2v4v6v26q4 72 30.5 137.5t68.5 115t97 78t117 28.5q23 0 50.5 -1t86.5 -9l-45 -150q-39 10 -58.5 11t-33.5 1q-70 -4 -119 -69.5t-49 -163.5v-16h252v-150h-252v-856h-141v856h-146z" />
<glyph unicode="g" horiz-adv-x="1128" d="M51 -43q0 86 52.5 161t136.5 120q-6 16 -7.5 34.5t-1.5 38.5q0 27 7.5 52.5t17.5 46.5q-127 102 -127 264q0 74 33 140.5t88 116.5t131 78.5t162 28.5q51 0 86 -6t69 -14h398l-140 -148h-59q29 -41 46.5 -92t17.5 -104q0 -78 -33 -143.5t-89.5 -114.5t-133 -77 t-162.5 -28q-31 0 -54.5 4t-44.5 9q-37 10 -57 10q-10 0 -20.5 -4t-10.5 -15q0 -18 11.5 -23t23.5 -5h10q4 0 5.5 1t5.5 1h4q10 4 25.5 4h27.5q88 0 165 -26.5t133 -71.5t89 -106.5t33 -131.5t-33 -132.5t-89 -108.5t-133 -73.5t-165 -27.5q-84 0 -160 27.5t-133 73.5 t-91 108.5t-34 132.5zM197 -43q0 -41 21.5 -77t59 -62.5t87 -43t104.5 -16.5q57 0 108.5 16.5t89.5 43t59.5 62.5t21.5 77q0 39 -21.5 75t-59.5 62.5t-89.5 43t-108.5 16.5q-55 0 -104.5 -16.5t-87 -43t-59 -62.5t-21.5 -75zM274 674q0 -45 21.5 -85t57.5 -70t85 -47 t105 -17q57 0 107 17t87 47t58.5 70t21.5 85t-21.5 86t-58.5 70.5t-87 47t-107 17.5q-55 0 -104.5 -17.5t-85.5 -47t-57.5 -70.5t-21.5 -86z" />
<glyph unicode="h" horiz-adv-x="931" d="M72 0v1399h145v-449q96 90 236 90q74 0 138 -29.5t111.5 -81.5t75 -122t29.5 -150l6 -651h-145v651q-2 49 -21.5 93.5t-50.5 76t-71 50t-85 18.5q-37 0 -72.5 -18.5t-65.5 -48t-52.5 -67.5t-32.5 -79v-682h-145z" />
<glyph unicode="i" horiz-adv-x="362" d="M84 1282q0 35 24.5 59.5t63.5 24.5q35 0 62.5 -24.5t27.5 -59.5t-27.5 -60.5t-62.5 -25.5q-39 0 -63.5 25.5t-24.5 60.5zM100 0v1026h144v-1026h-144z" />
<glyph unicode="j" horiz-adv-x="724" d="M74 -373l14 142q35 0 54.5 -1t29.5 -4q6 -2 8 -2l4 7q39 0 74 17t59.5 48t39 71t14.5 87v1036h145v-1055q-4 -72 -29.5 -135t-66.5 -111.5t-97.5 -77t-119.5 -30.5q-16 0 -34.5 1t-39.5 3q-4 2 -14.5 3t-40.5 1zM354 1272q0 39 23.5 61.5t64.5 22.5q29 0 55.5 -22.5 t26.5 -61.5q0 -35 -26.5 -60.5t-55.5 -25.5q-41 0 -64.5 25.5t-23.5 60.5z" />
<glyph unicode="k" horiz-adv-x="901" d="M43 0q18 18 37.5 54t19.5 67v1274h148v-652q53 45 108.5 92.5t108.5 92.5q25 23 51.5 44t48.5 44h232l-342 -285q29 -53 59.5 -104.5t60.5 -104.5q72 -123 151 -263t148 -259h-174l-360 633q-23 -20 -45.5 -40t-46.5 -40v-553h-205z" />
<glyph unicode="l" horiz-adv-x="331" d="M100 0v1395h146v-1395h-146z" />
<glyph unicode="m" horiz-adv-x="1513" d="M12 1026h205v-80q92 90 229 90q96 0 173 -46t126 -124q53 94 135.5 134t161.5 40q74 0 137.5 -29.5t110.5 -80.5t76 -122t31 -151l4 -653h-148v653q-2 49 -19 91.5t-46 75t-69 51t-85 18.5q-41 0 -76.5 -18.5t-66.5 -47t-52.5 -67.5t-29.5 -78v-678h-147v649 q0 49 -18.5 92t-48.5 75t-71 50.5t-86 18.5q-39 0 -74.5 -18.5t-64.5 -47t-50.5 -67.5t-31.5 -78v-678h-147v901q0 12 -5.5 30.5t-14.5 37t-19.5 34t-18.5 23.5z" />
<glyph unicode="n" horiz-adv-x="886" d="M0 1018h203v-66q49 49 105.5 69.5t129.5 20.5q74 0 137.5 -29.5t111.5 -81.5t77 -123t31 -151l4 -657h-148v657q0 49 -18.5 93.5t-49 76t-70.5 50t-85 18.5q-39 0 -76 -17.5t-66.5 -47t-51 -68.5t-31.5 -80v-682h-146v905q0 27 -20.5 61.5t-36.5 51.5z" />
<glyph unicode="o" horiz-adv-x="1050" d="M27 508q0 111 37.5 207t104.5 167.5t155 113.5t186 42q100 0 188 -42t152.5 -113.5t102.5 -168t38 -206.5q0 -109 -38 -205t-102.5 -168t-152.5 -113.5t-188 -41.5q-98 0 -186 41.5t-155 113.5t-104.5 168t-37.5 205zM176 508q0 -78 26.5 -147.5t71.5 -121t105.5 -81 t130.5 -29.5q68 0 128 29.5t105 81t72 121t27 147.5q0 80 -27 149.5t-72 121.5t-105 82t-128 30q-70 0 -130.5 -30t-105.5 -82t-71.5 -121.5t-26.5 -149.5z" />
<glyph unicode="p" horiz-adv-x="1036" d="M0 1024h207v-33q49 20 118.5 36.5t135.5 16.5q104 -2 194 -45t157 -113.5t105.5 -165.5t38.5 -202q0 -111 -38.5 -209t-105.5 -169.5t-157 -113.5t-194 -42q-72 0 -137.5 13t-114.5 36v-408h-148v1192q-2 41 -10 80q-6 33 -17 68.5t-34 58.5zM207 209q10 -29 84 -51.5 t170 -26.5q72 2 135 33t111.5 83t76 121.5t27.5 149.5q0 78 -27.5 146.5t-76 120t-112 81t-134.5 29.5q-53 0 -99.5 -6t-80 -17.5t-54 -26t-20.5 -28.5v-608z" />
<glyph unicode="q" horiz-adv-x="1050" d="M57 528q0 104 38 197.5t103.5 162t152.5 109.5t184 41q150 0 245 -43v21h146v-1391h-146v445q-49 -27 -112.5 -38.5t-132.5 -11.5q-96 2 -183.5 43t-153 110t-103.5 160t-38 195zM201 528q0 -76 26.5 -141t71.5 -114.5t105.5 -79t130.5 -31.5q96 0 164.5 22.5t80.5 55.5 v577q0 14 -19.5 28.5t-53 26t-77.5 17.5t-95 6q-70 0 -130.5 -28.5t-105.5 -79t-71.5 -117t-26.5 -142.5z" />
<glyph unicode="r" horiz-adv-x="571" d="M-25 1028h236v-80q94 90 231 90q14 0 34 -2t54 -16l-36 -143q-35 10 -44.5 12t-17.5 2q-39 0 -74.5 -17.5t-65.5 -47t-51.5 -68.5t-29.5 -80v-678h-148v901q0 27 -22.5 62.5t-65.5 64.5z" />
<glyph unicode="s" horiz-adv-x="854" d="M72 147l110 86q45 -45 107.5 -73.5t126.5 -28.5q43 0 79.5 10.5t65.5 28.5t45.5 44t16.5 56q0 27 -18.5 54.5t-47.5 51t-67.5 43t-77.5 30.5q-68 10 -127.5 40.5t-105.5 73.5t-72.5 93.5t-26.5 103.5q0 61 28.5 112.5t76.5 88t112.5 56t136.5 19.5q98 0 191.5 -44 t158.5 -111l-118 -86q-47 45 -110.5 69.5t-129.5 24.5q-84 0 -140.5 -36t-56.5 -95q0 -57 58.5 -105.5t150.5 -64.5q70 -10 130.5 -40t104.5 -73t69.5 -96t25.5 -109q0 -63 -27.5 -116.5t-75 -91t-110.5 -58t-133 -20.5q-92 0 -189.5 43t-160.5 120z" />
<glyph unicode="t" horiz-adv-x="696" d="M78 864v150h141v381h150v-381h258v-150h-258v-864h-146v864h-145z" />
<glyph unicode="u" horiz-adv-x="921" d="M74 365v657h145v-643l2 -10q2 -47 20.5 -90t49.5 -76t70.5 -51.5t84.5 -18.5q39 0 75 18.5t65.5 48t50 67.5t29.5 79v680h147v-899q0 -31 19.5 -70t37.5 -57h-204v74q-47 -43 -105.5 -67.5t-128.5 -24.5q-72 0 -134 29.5t-110.5 79.5t-77 119t-30.5 148z" />
<glyph unicode="v" horiz-adv-x="1024" d="M14 1026h156l326 -793q57 145 112.5 282.5t114.5 283.5q23 53 46.5 115.5t45.5 111.5h162l-420 -1026h-129z" />
<glyph unicode="w" horiz-adv-x="1443" d="M10 1026h158l321 -786q10 27 21.5 51t24.5 53q18 47 35.5 90t35.5 90q-25 63 -51.5 133t-54.5 136q-10 25 -22.5 55.5t-25 62t-24.5 61t-20 54.5h163l316 -790q80 197 160.5 396t158.5 394h162l-420 -1026l-129 6l-129 322q-23 -53 -45 -105.5t-45 -105.5 q-10 -27 -24.5 -59.5t-24.5 -57.5l-125 6z" />
<glyph unicode="x" horiz-adv-x="909" d="M16 0l324 532l-313 494h178l227 -364q35 59 75 116.5t77 116.5q23 31 44 66.5t42 64.5h176l-322 -510q45 -72 93.5 -149.5t97.5 -155.5q29 -47 65.5 -107.5t65.5 -103.5h-174l-244 385q-14 -23 -25.5 -42t-27.5 -42h2q-45 -74 -92 -151.5t-92 -149.5h-177z" />
<glyph unicode="y" horiz-adv-x="1095" d="M82 -369l22 170q29 -31 50.5 -36t38.5 -5q59 0 115.5 40t84.5 118q10 25 18.5 47.5t18.5 46.5q10 23 17.5 42.5t17.5 41.5q-14 35 -28.5 71t-26.5 71q-37 88 -80 192.5t-86 211t-85 208.5t-77 188h158l299 -753q47 119 95 240.5t97 244.5q25 66 52.5 136.5t54.5 131.5 h157l-385 -950q-10 -23 -17 -45.5t-18 -44.5q-10 -31 -25 -64.5t-26 -68.5q-23 -59 -59.5 -105.5t-81.5 -79t-94 -49t-99 -16.5q-47 0 -108 16z" />
<glyph unicode="z" horiz-adv-x="925" d="M70 0v129l565 750h-559v147h766v-127l-566 -752h566v-147h-772z" />
<glyph unicode="{" horiz-adv-x="456" d="M55 641v147h74q20 0 35.5 15.5t15.5 38.5v448q8 47 61.5 76t118.5 29v-152q-12 0 -21 -3t-11 1v-426q-12 -35 -30.5 -59.5t-53.5 -30.5v-20q66 -20 84 -80v-480h32v-145q-27 0 -58.5 9t-58 25.5t-45 39t-18.5 51.5v463q0 23 -15 38t-36 15h-74z" />
<glyph unicode="|" horiz-adv-x="268" d="M82 2v1442h117v-1442h-117z" />
<glyph unicode="}" horiz-adv-x="385" d="M29 0v145q16 0 24 -1t13 1v476q16 74 77 86q0 6 1 11t1 9q-29 10 -51 32.5t-28 51.5v432h-37v152q76 0 124 -31t58 -74l4 -16v-432q0 -23 11.5 -38.5t33.5 -15.5h74v-147h-74q-23 0 -34 -15.5t-11 -37.5v-463q0 -29 -17.5 -51.5t-44 -39t-60.5 -25.5t-64 -9z" />
<glyph unicode="~" horiz-adv-x="710" d="M33 659q47 35 106.5 52.5t112.5 17.5q29 0 54.5 -7t49.5 -15l-2 2q4 0 8.5 -1t6.5 -1q20 -6 38.5 -11.5t34.5 -5.5q39 0 84 16.5t80 45.5l53 -123q-45 -31 -98 -50.5t-112 -19.5q-80 0 -136 31q-12 4 -27.5 6t-31.5 2q-84 0 -158 -61z" />
<glyph unicode="&#xa1;" horiz-adv-x="327" d="M84 1319v4q0 31 21.5 55.5t56.5 24.5q31 0 54.5 -24.5t23.5 -55.5q0 -35 -23.5 -57.5t-54.5 -22.5q-41 0 -58.5 22.5t-19.5 53.5zM94 0v1196h133v-1196h-133z" />
<glyph unicode="&#xa2;" horiz-adv-x="978" d="M29 510q0 98 31.5 187t88 159t132 116t163.5 58v135h156v-135q82 -14 159 -62t138 -114l-106 -109q-41 51 -89.5 87t-101.5 49v-744q47 16 97.5 50t90.5 79l105 -102q-68 -72 -138.5 -118t-154.5 -58v-131h-156v133q-84 18 -159.5 65t-132 117t-90 156t-33.5 182z M174 510q0 -68 20.5 -129.5t56.5 -110.5t85 -83.5t108 -49.5v744q-59 -12 -108 -47t-85 -84.5t-56.5 -110.5t-20.5 -129z" />
<glyph unicode="&#xa3;" horiz-adv-x="1138" d="M33 578v147h231v670h148v-670h350v-147h-350v-433h647v-145h-795v578h-231z" />
<glyph unicode="&#xa5;" horiz-adv-x="1394" d="M25 1395h192l455 -627q117 156 232.5 313.5t232.5 313.5h190l-575 -772v-31h280v-150h-280v-8h280v-149h-280v-285h-152v285h-281v149h281v8h-281v150h281v31q-86 117 -178 240.5t-186 248.5q-49 63 -108.5 143t-102.5 140z" />
<glyph unicode="&#xa6;" horiz-adv-x="268" d="M82 2v725h117v-725h-117zM82 788v656h117v-656h-117z" />
<glyph unicode="&#xa7;" horiz-adv-x="729" d="M57 774q0 55 17.5 98t58.5 78v35q0 59 23.5 106.5t64.5 80t94.5 50t114.5 17.5q45 0 103.5 -14.5t123.5 -42.5l-63 -140q-49 27 -92 39.5t-76 12.5q-47 0 -86 -18.5t-55 -53.5q16 4 32.5 4h36.5q90 0 232 -59l-64 -136q-102 49 -172 50q-16 0 -17 2t-14 -2 q20 -29 49 -51.5t70 -43.5h-2q111 -53 173.5 -141t62.5 -182q0 -53 -19.5 -99.5t-54.5 -80.5v-33q0 -63 -25.5 -112.5t-67.5 -84.5t-96.5 -53t-111.5 -18q-94 0 -229 65l65 125q94 -43 162 -43q49 0 91 18.5t58 53.5q-35 -6 -75 -6q-49 0 -107.5 15t-118.5 46l64 131 q96 -45 166 -45q29 0 51 6q-20 31 -52 54.5t-73 46.5q-53 27 -97 64.5t-77 80.5t-50.5 89t-17.5 91zM207 766q0 -51 43 -103.5t115 -87.5q47 -25 89 -56.5t70 -67.5q2 4 2 16q0 25 -12 52.5t-33.5 53t-50.5 49t-61 42.5h2q-102 41 -162 122q-2 -6 -2 -20zM512 406l37 8 q-10 18 -25 37q-2 -18 -10 -37l-2 -6v-2z" />
<glyph unicode="&#xa8;" horiz-adv-x="538" d="M51 1282q0 35 26.5 59.5t61.5 24.5t61.5 -24.5t26.5 -59.5t-26.5 -60.5t-61.5 -25.5t-61.5 25.5t-26.5 60.5zM307 1282q0 35 26.5 59.5t61.5 24.5t62.5 -24.5t27.5 -59.5t-27.5 -60.5t-62.5 -25.5t-61.5 25.5t-26.5 60.5z" />
<glyph unicode="&#xaa;" horiz-adv-x="366" d="M23 754q0 59 44 100t113 41h29q-8 29 -23 29q-23 0 -48 -5.5t-66 -17.5l-23 117q35 10 66.5 15t70.5 5q53 0 94.5 -46t45.5 -120q-2 -14 -2 -32v-76q0 -31 20.5 -77t48.5 -73l-155 2q-16 -8 -30.5 -9t-31.5 -1q-66 0 -109.5 43t-43.5 105zM137 754q0 -10 11.5 -20.5 t27.5 -10.5q14 0 25.5 10t11.5 21v28h-37q-16 0 -27.5 -9t-11.5 -19z" />
<glyph unicode="&#xab;" horiz-adv-x="1089" d="M29 571l559 471l96 -112l-451 -379q43 -53 85 -102.5t88 -102.5q47 -57 100 -118.5t100 -114.5l-108 -99zM354 571l559 471l97 -112l-451 -379q16 -23 32.5 -39t33.5 -39q76 -86 156.5 -181t150.5 -181l-109 -97z" />
<glyph unicode="&#xac;" horiz-adv-x="1355" d="M70 664v145h1179v-496h-145v351h-1034z" />
<glyph unicode="&#xad;" horiz-adv-x="862" d="M61 524v148h730v-148h-730z" />
<glyph unicode="&#xb0;" horiz-adv-x="512" d="M27 1180q0 47 17 88t47 70.5t72 47t91 17.5q90 0 152.5 -63.5t62.5 -159.5q0 -45 -17.5 -85t-46 -69t-67.5 -46t-84 -17q-49 0 -91 17t-72 46t-47 69t-17 85zM147 1180q0 -41 33 -72t74 -31q35 0 64.5 31t29.5 72t-29.5 74.5t-64.5 33.5q-41 0 -74 -33.5t-33 -74.5z" />
<glyph unicode="&#xb1;" horiz-adv-x="925" d="M88 297v145h727v-145h-727zM90 883v147h289v291h147v-291h291v-147h-291v-291h-147v291h-289z" />
<glyph unicode="&#xb2;" horiz-adv-x="573" d="M25 1298q53 47 108 76t115 29q55 0 102 -20.5t83 -55.5t55.5 -82t19.5 -100q0 -49 -21.5 -98.5t-48.5 -83.5l-205 -230h275v-125h-467v105l307 344q16 16 25.5 40.5t9.5 47.5q0 53 -41 92t-94 39q-23 0 -56.5 -18.5t-72.5 -55.5z" />
<glyph unicode="&#xb3;" horiz-adv-x="542" d="M-4 713l72 71h41q25 -27 57.5 -44t60.5 -17q47 0 86 31.5t39 76.5t-36.5 77t-79.5 38h-134v125h138q41 2 76.5 34t35.5 69t-38 66.5t-85 29.5q-63 0 -139 -82l-90 98q102 109 229 109q51 0 97.5 -17.5t81 -47.5t54 -70.5t19.5 -85.5q0 -55 -18.5 -99.5t-59.5 -73.5 q31 -35 52.5 -78.5t21.5 -91.5q0 -49 -19.5 -91t-53 -73.5t-79.5 -49t-98 -17.5q-68 0 -125 29.5t-106 83.5z" />
<glyph unicode="&#xb4;" horiz-adv-x="428" d="M27 1063l174 231h235l-291 -231h-118z" />
<glyph unicode="&#xb6;" horiz-adv-x="782" d="M31 1044q0 74 26.5 137.5t73.5 110.5t110.5 75t135.5 28h184v-1395h-217v696q-66 8 -122 39t-99 78t-67.5 106.5t-24.5 124.5zM174 1053q0 -78 40 -135.5t105 -65.5v401q-66 -10 -105.5 -66.5t-39.5 -133.5zM541 4v1389h143v-1389h-143z" />
<glyph unicode="&#xb7;" horiz-adv-x="460" d="M94 635q0 25 10.5 48.5t29 41.5t43 29.5t52.5 11.5q27 0 52.5 -11.5t44 -29.5t30 -42t11.5 -48q0 -47 -41 -86t-97 -39q-57 0 -96 39t-39 86z" />
<glyph unicode="&#xb9;" horiz-adv-x="538" d="M31 1163l278 232h125v-645h-147v436q-33 -29 -66 -54.5t-65 -52.5q-4 -2 -10.5 -8t-10.5 -10z" />
<glyph unicode="&#xba;" horiz-adv-x="475" d="M27 813q0 98 58 161.5t148 63.5q41 0 77 -16t63.5 -47t43 -72t15.5 -90q0 -45 -15.5 -84t-43 -68.5t-63.5 -46t-77 -16.5q-90 0 -148 61.5t-58 153.5zM141 813q0 -37 29 -68.5t63 -31.5q31 0 56.5 31.5t25.5 68.5q0 43 -25.5 77t-56.5 34q-35 0 -63.5 -34t-28.5 -77z" />
<glyph unicode="&#xbb;" horiz-adv-x="1073" d="M25 930l98 112l557 -471l-467 -557l-109 97l373 440q-66 57 -139.5 119.5t-144.5 122.5q-39 31 -85.5 68.5t-82.5 68.5zM350 930l99 112l557 -471l-467 -557l-109 97l373 440q-66 57 -139.5 119.5t-145.5 122.5q-39 31 -85 68.5t-83 68.5z" />
<glyph unicode="&#xbc;" horiz-adv-x="782" d="M31 907l157 131h86v-628h-108v475l-29 -25q-6 -4 -10 -7t-21 -19zM285 246v82l239 411l94 -49l-198 -338h108v146h107v-146h94v-106h-94v-246h-107v246h-243z" />
<glyph unicode="&#xbd;" horiz-adv-x="727" d="M6 907l158 133h86v-630h-107v477l-30 -25l-10.5 -7t-20.5 -19zM236 641q47 41 95 66.5t95 25.5q51 0 96 -18.5t78 -51t51.5 -75.5t18.5 -94q0 -47 -19.5 -88t-48.5 -74l-203 -228h271v-104h-428v84l288 326q14 14 23.5 37.5t9.5 46.5q0 57 -40 95t-97 38 q-27 0 -55.5 -15.5t-61.5 -44.5z" />
<glyph unicode="&#xbe;" horiz-adv-x="937" d="M31 401l80 70q27 -31 58.5 -49.5t63.5 -18.5q53 0 92.5 33t39.5 80q0 31 -20.5 53.5t-54.5 37t-77 17.5t-88 -3v112h121q51 4 86 31t35 67q0 43 -38 74t-91 31q-35 0 -69 -18.5t-63 -49.5l-73 76q90 96 205 96q49 0 92 -16t74.5 -44t51 -65.5t19.5 -83.5 q0 -49 -22.5 -87.5t-61.5 -65.5q37 -31 58.5 -73t21.5 -89t-18.5 -87t-50 -68.5t-75.5 -46t-94 -17.5q-57 0 -109 28.5t-93 75.5zM432 248v84l242 409l94 -47l-193 -338h101v146h108v-146h95v-108h-95v-244h-108v244h-244z" />
<glyph unicode="&#xbf;" horiz-adv-x="884" d="M74 377q0 80 30.5 151.5t82 126t120 87t144.5 32.5h61q-12 41 -26.5 88t-24.5 92q-33 104 -69 225t-62 216h155l189 -645v-125h-223q-49 -2 -91.5 -21.5t-74 -52.5t-50 -78t-18.5 -96q0 -49 19.5 -94t52.5 -79t77 -53.5t95 -19.5q66 0 126 42t103 114l107 -107 q-59 -90 -146.5 -145t-189.5 -55q-80 0 -150.5 31.5t-123 86t-83 127t-30.5 152.5zM285 1542q0 41 22.5 64.5t63.5 23.5q33 0 58.5 -23.5t25.5 -64.5q0 -37 -26 -61.5t-58 -24.5q-41 0 -63.5 24.5t-22.5 61.5z" />
<glyph unicode="&#xc0;" d="M31 0l522 1415h113l522 -1415h-156l-207 559h-430q-33 -88 -66.5 -179t-68.5 -183q-18 -47 -38.5 -99.5t-37.5 -97.5h-153zM301 1685h240l174 -231h-119zM449 709h321q-16 47 -38.5 105t-39.5 104v-3q-12 33 -22.5 58.5t-19.5 50.5t-19 51.5t-23 63.5q-16 -39 -32.5 -82 t-28.5 -82v-2q-29 -72 -49.5 -129.5t-48.5 -134.5z" />
<glyph unicode="&#xc1;" d="M31 0l522 1415h113l522 -1415h-156l-207 559h-430q-33 -88 -66.5 -179t-68.5 -183q-18 -47 -38.5 -99.5t-37.5 -97.5h-153zM449 709h321q-16 47 -38.5 105t-39.5 104v-3q-12 33 -22.5 58.5t-19.5 50.5t-19 51.5t-23 63.5q-16 -39 -32.5 -82t-28.5 -82v-2 q-29 -72 -49.5 -129.5t-48.5 -134.5zM533 1454l174 231h235l-291 -231h-118z" />
<glyph unicode="&#xc2;" d="M31 0l522 1415h113l522 -1415h-156l-207 559h-430q-33 -88 -66.5 -179t-68.5 -183q-18 -47 -38.5 -99.5t-37.5 -97.5h-153zM449 709h321q-16 47 -38.5 105t-39.5 104v-3q-12 33 -22.5 58.5t-19.5 50.5t-19 51.5t-23 63.5q-16 -39 -32.5 -82t-28.5 -82v-2 q-29 -72 -49.5 -129.5t-48.5 -134.5z" />
<glyph unicode="&#xc3;" d="M45 35l522 1415h113l522 -1415h-155l-207 559h-430q-33 -88 -67 -179t-69 -184q-18 -47 -38.5 -99t-36.5 -97h-154zM315 1606q47 31 102.5 49t108.5 18q35 0 58.5 -5t44.5 -9h-4l4 -2q18 -6 38.5 -11.5t37.5 -5.5q41 0 83.5 14.5t73.5 41.5l56 -117q-47 -35 -100.5 -51.5 t-108.5 -16.5q-63 0 -121 23q-14 4 -28.5 7t-33.5 3q-39 0 -78.5 -15.5t-72.5 -37.5zM463 743h321q-16 47 -38.5 105.5t-38.5 103.5v-2q-12 33 -22.5 58.5t-20 50t-19.5 51.5t-22 64q-16 -39 -33 -82t-29 -82v-2q-29 -72 -49 -129.5t-49 -135.5z" />
<glyph unicode="&#xc4;" d="M31 0l522 1415h113l522 -1415h-156l-207 559h-430q-33 -88 -66.5 -179t-68.5 -183q-18 -47 -38.5 -99.5t-37.5 -97.5h-153zM385 1513q0 35 26.5 59.5t61.5 24.5t61.5 -24.5t26.5 -59.5t-26.5 -60.5t-61.5 -25.5t-61.5 25.5t-26.5 60.5zM449 709h321q-16 47 -38.5 105 t-39.5 104v-3q-12 33 -22.5 58.5t-19.5 50.5t-19 51.5t-23 63.5q-16 -39 -32.5 -82t-28.5 -82v-2q-29 -72 -49.5 -129.5t-48.5 -134.5zM641 1513q0 35 26.5 59.5t61.5 24.5t62.5 -24.5t27.5 -59.5t-27.5 -60.5t-62.5 -25.5t-61.5 25.5t-26.5 60.5z" />
<glyph unicode="&#xc6;" horiz-adv-x="2213" d="M37 0l524 1415h1313v-145h-696v-445h596v-149h-596v-526h696v-150h-846v559h-627q-23 -66 -48 -134.5t-50 -133.5q-29 -72 -56.5 -148.5t-51.5 -142.5h-158zM457 709h571l19 561h-390q-27 -76 -52 -145.5t-52 -141.5q-25 -72 -46.5 -135.5t-49.5 -138.5z" />
<glyph unicode="&#xc7;" horiz-adv-x="1298" d="M86 700q0 154 51 286t139.5 229.5t206 152.5t252.5 55q129 0 249 -59t218 -166l-106 -98q-78 86 -172.5 132t-188.5 46q-104 0 -195 -46t-160 -125t-108 -183.5t-39 -223.5q0 -115 39 -219t106.5 -183t160 -125t196.5 -46q94 0 186.5 47t170.5 127l106 -100 q-195 -205 -448 -217q29 -16 55 -49t26 -72q0 -35 -29.5 -75t-103.5 -81l-163 121q12 0 39.5 2t55 6t49 11.5t21.5 19.5q0 16 -25.5 21.5t-39.5 5.5h-51l2 106q-104 29 -195.5 93.5t-159 156.5t-106.5 206.5t-39 243.5z" />
<glyph unicode="&#xc8;" horiz-adv-x="993" d="M68 0v1415h843v-145h-696v-445h594v-149h-594v-526h696v-150h-843zM159 1685h240l174 -231h-119z" />
<glyph unicode="&#xc9;" horiz-adv-x="993" d="M68 0v1415h843v-145h-696v-445h594v-149h-594v-526h696v-150h-843zM363 1454l174 231h235l-291 -231h-118z" />
<glyph unicode="&#xcb;" horiz-adv-x="993" d="M68 0v1415h843v-145h-696v-445h594v-149h-594v-526h696v-150h-843zM270 1515q0 35 26.5 59.5t61.5 24.5t61.5 -24.5t26.5 -59.5t-26.5 -60.5t-61.5 -25.5t-61.5 25.5t-26.5 60.5zM526 1515q0 35 26.5 59.5t61.5 24.5t62.5 -24.5t27.5 -59.5t-27.5 -60.5t-62.5 -25.5 t-61.5 25.5t-26.5 60.5z" />
<glyph unicode="&#xcc;" horiz-adv-x="268" d="M-142 1685h240l174 -231h-119zM84 0v1415h149v-1415h-149z" />
<glyph unicode="&#xcd;" horiz-adv-x="315" d="M64 1454l174 231h235l-291 -231h-118zM68 0v1415h149v-1415h-149z" />
<glyph unicode="&#xce;" horiz-adv-x="282" d="M68 0v1415h149v-1415h-149z" />
<glyph unicode="&#xcf;" horiz-adv-x="282" d="M-82 1513q0 35 26.5 59.5t61.5 24.5t61.5 -24.5t26.5 -59.5t-26.5 -60.5t-61.5 -25.5t-61.5 25.5t-26.5 60.5zM68 0v1415h149v-1415h-149zM174 1513q0 35 26.5 59.5t61.5 24.5t62.5 -24.5t27.5 -59.5t-27.5 -60.5t-62.5 -25.5t-61.5 25.5t-26.5 60.5z" />
<glyph unicode="&#xd0;" horiz-adv-x="1337" d="M70 535v147h131v733h530q104 -2 196.5 -57t161 -150.5t107.5 -223.5t39 -273t-39 -273.5t-106.5 -224.5t-158.5 -152.5t-196 -60.5h-534v535h-131zM350 150h92t93 2q51 0 101 1t99 1q74 2 137.5 47t110.5 119.5t74.5 175t27.5 215.5t-27.5 215t-74.5 175t-112.5 119 t-139.5 46h-381v-584h340v-147h-340v-385z" />
<glyph unicode="&#xd1;" horiz-adv-x="1099" d="M74 0v1415h133l645 -1091v1091h149v-1415h-135l-645 1098v-1098h-147zM246 1569q88 47 172 47q39 0 67.5 -7t53.5 -15q4 -2 8 -3t8 -3q23 -10 49.5 -18.5t57.5 -8.5q29 0 62.5 12.5t66.5 32.5l43 -123q-39 -23 -85 -36t-87 -13t-92.5 15.5t-104.5 50.5l41 -25 q-16 6 -37.5 10t-50.5 4q-27 0 -58.5 -11t-66.5 -32z" />
<glyph unicode="&#xd2;" horiz-adv-x="1413" d="M41 707q0 150 51 279.5t138 227t205 153.5t253 56q139 0 257 -56t204 -152.5t135 -227.5t49 -280q0 -160 -51 -293.5t-145 -233.5q-88 -96 -202 -147t-247 -51q-129 0 -246.5 55t-207 152.5t-141.5 230.5t-52 287zM193 707q0 -119 38.5 -223.5t105 -182.5t157 -123 t194.5 -45q106 0 197.5 45t159 123t105.5 182.5t38 223.5q0 125 -42 232t-118 183q-66 72 -154 111t-186 39q-102 0 -192 -44t-158 -121t-106.5 -179.5t-38.5 -220.5zM346 1685h240l174 -231h-119z" />
<glyph unicode="&#xd3;" horiz-adv-x="1413" d="M41 707q0 150 51 279.5t138 227t205 153.5t253 56q139 0 257 -56t204 -152.5t135 -227.5t49 -280q0 -160 -51 -293.5t-145 -233.5q-88 -96 -202 -147t-247 -51q-129 0 -246.5 55t-207 152.5t-141.5 230.5t-52 287zM193 707q0 -119 38.5 -223.5t105 -182.5t157 -123 t194.5 -45q106 0 197.5 45t159 123t105.5 182.5t38 223.5q0 125 -42 232t-118 183q-66 72 -154 111t-186 39q-102 0 -192 -44t-158 -121t-106.5 -179.5t-38.5 -220.5zM645 1454l174 231h235l-291 -231h-118z" />
<glyph unicode="&#xd5;" horiz-adv-x="1413" d="M41 707q0 150 51 279.5t138 227t205 153.5t253 56q139 0 257 -56t204 -152.5t135 -227.5t49 -280q0 -160 -51 -293.5t-145 -233.5q-88 -96 -202 -147t-247 -51q-129 0 -246.5 55t-207 152.5t-141.5 230.5t-52 287zM193 707q0 -119 38.5 -223.5t105 -182.5t157 -123 t194.5 -45q106 0 197.5 45t159 123t105.5 182.5t38 223.5q0 125 -42 232t-118 183q-66 72 -154 111t-186 39q-102 0 -192 -44t-158 -121t-106.5 -179.5t-38.5 -220.5zM402 1571q88 47 172 47q39 0 67.5 -7t53.5 -15q4 -2 8 -3t8 -3q23 -10 49.5 -18.5t57.5 -8.5 q29 0 62.5 12.5t66.5 32.5l43 -123q-39 -23 -85 -36t-87 -13t-92.5 15.5t-104.5 50.5l41 -25q-16 6 -37.5 10t-50.5 4q-27 0 -58.5 -11t-66.5 -32z" />
<glyph unicode="&#xd6;" horiz-adv-x="1413" d="M41 707q0 150 51 279.5t138 227t205 153.5t253 56q139 0 257 -56t204 -152.5t135 -227.5t49 -280q0 -160 -51 -293.5t-145 -233.5q-88 -96 -202 -147t-247 -51q-129 0 -246.5 55t-207 152.5t-141.5 230.5t-52 287zM193 707q0 -119 38.5 -223.5t105 -182.5t157 -123 t194.5 -45q106 0 197.5 45t159 123t105.5 182.5t38 223.5q0 125 -42 232t-118 183q-66 72 -154 111t-186 39q-102 0 -192 -44t-158 -121t-106.5 -179.5t-38.5 -220.5zM481 1515q0 35 26.5 59.5t61.5 24.5t61.5 -24.5t26.5 -59.5t-26.5 -60.5t-61.5 -25.5t-61.5 25.5 t-26.5 60.5zM737 1515q0 35 26.5 59.5t61.5 24.5t62.5 -24.5t27.5 -59.5t-27.5 -60.5t-62.5 -25.5t-61.5 25.5t-26.5 60.5z" />
<glyph unicode="&#xd7;" horiz-adv-x="751" d="M43 430l207 207l-205 205l102 104l207 -205l205 205l105 -102l-207 -207l207 -207l-103 -102l-207 207l-207 -207z" />
<glyph unicode="&#xd8;" horiz-adv-x="1413" d="M41 707q0 150 51 279.5t138 227t205 153.5t253 56q43 0 89 -7t87 -19q0 4 4 12q2 4 2 6h152l-23 -76q154 -98 244 -263t90 -369q0 -160 -51 -293.5t-145 -233.5q-88 -96 -202 -147t-247 -51q-43 0 -87 7t-81 17v-6h-168l25 70q-76 43 -137.5 108.5t-105.5 147.5 t-68.5 178t-24.5 203zM193 707q0 -162 63 -290t172 -204q59 158 114.5 309.5t112.5 306.5q41 111 78 213.5t78 212.5q-29 10 -58.5 13.5t-64.5 3.5q-102 0 -192 -44t-158 -121t-106.5 -179.5t-38.5 -220.5zM565 150q29 -10 58.5 -13.5t64.5 -3.5q106 0 197.5 45t159 123 t105.5 182.5t38 223.5q0 125 -42 232t-118 183q-23 23 -40 39.5t-40 32.5q-29 -76 -56.5 -149.5t-55.5 -151.5q-70 -188 -135.5 -371.5t-135.5 -371.5z" />
<glyph unicode="&#xd9;" horiz-adv-x="1224" d="M66 369v1046h155v-1042q8 -47 41 -90t84 -77t117.5 -53.5t140.5 -19.5q70 0 134.5 19.5t114.5 53.5t83 77t39 90v1042h149v-1044q-4 -80 -46 -150.5t-112.5 -124t-163.5 -84t-198 -30.5q-109 0 -205 30.5t-167.5 84t-115.5 123t-50 149.5zM288 1685h240l174 -231h-119z " />
<glyph unicode="&#xda;" horiz-adv-x="1224" d="M66 369v1046h155v-1042q8 -47 41 -90t84 -77t117.5 -53.5t140.5 -19.5q70 0 134.5 19.5t114.5 53.5t83 77t39 90v1042h149v-1044q-4 -80 -46 -150.5t-112.5 -124t-163.5 -84t-198 -30.5q-109 0 -205 30.5t-167.5 84t-115.5 123t-50 149.5zM525 1454l174 231h235 l-291 -231h-118z" />
<glyph unicode="&#xdc;" horiz-adv-x="1224" d="M66 369v1046h155v-1042q8 -47 41 -90t84 -77t117.5 -53.5t140.5 -19.5q70 0 134.5 19.5t114.5 53.5t83 77t39 90v1042h149v-1044q-4 -80 -46 -150.5t-112.5 -124t-163.5 -84t-198 -30.5q-109 0 -205 30.5t-167.5 84t-115.5 123t-50 149.5zM387 1513q0 35 26.5 59.5 t61.5 24.5t61.5 -24.5t26.5 -59.5t-26.5 -60.5t-61.5 -25.5t-61.5 25.5t-26.5 60.5zM643 1513q0 35 26.5 59.5t61.5 24.5t62.5 -24.5t27.5 -59.5t-27.5 -60.5t-62.5 -25.5t-61.5 25.5t-26.5 60.5z" />
<glyph unicode="&#xdd;" horiz-adv-x="1394" d="M20 1415h195l463 -635q31 41 61.5 82t61.5 84q84 115 173 236t175 233h192l-585 -782v-633h-152v633q-37 49 -79 106.5t-83 110.5q-49 66 -105 140.5t-111.5 148t-107.5 145.5t-98 131zM627 1454l174 231h235l-291 -231h-118z" />
<glyph unicode="&#xde;" horiz-adv-x="1095" d="M104 -383v1800h148v-411q51 23 116.5 38t139.5 15q104 -2 196.5 -45t161 -116t107.5 -169t39 -205q0 -113 -39 -212t-107.5 -172.5t-161 -115.5t-196.5 -42q-78 0 -140.5 16t-117.5 39v-420h-146zM248 829l4 -614q-2 -16 17.5 -30.5t55 -26t83 -18.5t100.5 -9 q72 2 136.5 33t112.5 84t75.5 123.5t27.5 150.5q0 78 -27.5 147.5t-75.5 123t-112.5 84t-136.5 30.5q-98 0 -173 -22.5t-87 -55.5z" />
<glyph unicode="&#xdf;" horiz-adv-x="1064" d="M86 -332v1727h459q80 -2 149.5 -32t121.5 -79t83 -113.5t31 -136.5q0 -94 -42 -167.5t-114 -125.5q86 -53 134 -141t48 -190q0 -82 -31.5 -155t-87 -128t-130 -88t-162.5 -35h-178l-131 133v-469h-150zM236 145h309q55 2 103 25t84 58.5t56.5 82.5t20.5 99q0 49 -21.5 94 t-60.5 81t-94 57.5t-123 25.5h-274v-523zM236 813h309q49 2 93 19.5t75.5 46t50 68.5t18.5 87q0 41 -18.5 79t-51 66.5t-75.5 47t-94 22.5h-307v-436z" />
<glyph unicode="&#xe0;" horiz-adv-x="831" d="M59 303q0 72 29 132.5t77 103.5t112.5 67.5t136.5 24.5h186v6q0 104 -47 177t-125 77q-53 0 -115.5 -9.5t-130.5 -29.5l-37 143q72 20 142.5 31.5t142.5 11.5q63 -2 119.5 -30.5t99.5 -76.5t68.5 -113.5t30.5 -139.5v-21q-2 -49 -3 -102q-2 -47 -2 -104.5v-116.5 q0 -53 3.5 -105.5t10.5 -97.5t18 -80t26 -51h-201v39q-43 -29 -94 -44t-105 -15q-70 0 -132 25.5t-108 69.5t-74 102.5t-28 125.5zM96 1294h240l174 -231h-119zM207 303q0 -37 15.5 -67.5t42 -54t61 -37t75.5 -13.5t78 13.5t63.5 37t42 54t15.5 67.5v180h-186 q-86 0 -146.5 -49t-60.5 -131z" />
<glyph unicode="&#xe1;" horiz-adv-x="831" d="M59 303q0 72 29 132.5t77 103.5t112.5 67.5t136.5 24.5h186v6q0 104 -47 177t-125 77q-53 0 -115.5 -9.5t-130.5 -29.5l-37 143q72 20 142.5 31.5t142.5 11.5q63 -2 119.5 -30.5t99.5 -76.5t68.5 -113.5t30.5 -139.5v-21q-2 -49 -3 -102q-2 -47 -2 -104.5v-116.5 q0 -53 3.5 -105.5t10.5 -97.5t18 -80t26 -51h-201v39q-43 -29 -94 -44t-105 -15q-70 0 -132 25.5t-108 69.5t-74 102.5t-28 125.5zM207 303q0 -37 15.5 -67.5t42 -54t61 -37t75.5 -13.5t78 13.5t63.5 37t42 54t15.5 67.5v180h-186q-86 0 -146.5 -49t-60.5 -131zM303 1063 l174 231h235l-291 -231h-118z" />
<glyph unicode="&#xe2;" horiz-adv-x="831" d="M59 303q0 72 29 132.5t77 103.5t112.5 67.5t136.5 24.5h186v6q0 104 -47 177t-125 77q-53 0 -115.5 -9.5t-130.5 -29.5l-37 143q72 20 142.5 31.5t142.5 11.5q63 -2 119.5 -30.5t99.5 -76.5t68.5 -113.5t30.5 -139.5v-21q-2 -49 -3 -102q-2 -47 -2 -104.5v-116.5 q0 -53 3.5 -105.5t10.5 -97.5t18 -80t26 -51h-201v39q-43 -29 -94 -44t-105 -15q-70 0 -132 25.5t-108 69.5t-74 102.5t-28 125.5zM152 1124l253 250l254 -252l-96 -96l-158 160l-161 -160zM207 303q0 -37 15.5 -67.5t42 -54t61 -37t75.5 -13.5t78 13.5t63.5 37t42 54 t15.5 67.5v180h-186q-86 0 -146.5 -49t-60.5 -131z" />
<glyph unicode="&#xe3;" horiz-adv-x="831" d="M74 336q0 72 28.5 132t76.5 103t112.5 68t136.5 25h186v6q0 104 -47 177t-125 77q-53 0 -115.5 -9.5t-129.5 -29.5l-37 143q72 20 142.5 31.5t141.5 11.5q63 -2 120 -30.5t100 -77t68.5 -114t29.5 -138.5v-21q-2 -49 -2 -102q-2 -47 -2 -104.5v-116.5q0 -53 3 -105.5 t10 -97.5t18.5 -80t25.5 -51h-201v39q-43 -29 -94 -44.5t-104 -15.5q-70 0 -132.5 25.5t-108.5 70t-73.5 102.5t-27.5 126zM92 1167q47 31 103.5 51.5t109.5 20.5q35 0 56.5 -4t41.5 -10h-6q2 0 3 -1t3 -1q39 -14 66 -15q41 0 85 17.5t77 46.5l55 -115q-43 -35 -99.5 -55.5 t-109.5 -20.5q-29 0 -58.5 5.5t-53.5 17.5v-2q-31 10 -58 10q-35 0 -77 -16.5t-72 -44.5zM221 336q0 -37 15.5 -67.5t42 -54.5t61.5 -37t76 -13t77.5 13t63.5 37t42 54.5t15 67.5v180h-186q-86 0 -146.5 -49t-60.5 -131z" />
<glyph unicode="&#xe4;" horiz-adv-x="831" d="M74 336q0 72 28.5 132t76.5 103t112.5 68t136.5 25h186v6q0 104 -47 177t-125 77q-53 0 -115.5 -9.5t-129.5 -29.5l-37 143q72 20 142.5 31.5t141.5 11.5q63 -2 120 -30.5t100 -77t68.5 -114t29.5 -138.5v-21q-2 -49 -2 -102q-2 -47 -2 -104.5v-116.5q0 -53 3 -105.5 t10 -97.5t18.5 -80t25.5 -51h-201v39q-43 -29 -94 -44.5t-104 -15.5q-70 0 -132.5 25.5t-108.5 70t-73.5 102.5t-27.5 126zM205 1282q0 35 25.5 59.5t64.5 24.5q35 0 61.5 -24.5t26.5 -59.5t-26.5 -60.5t-61.5 -25.5q-39 0 -64.5 25.5t-25.5 60.5zM221 336q0 -37 15.5 -67.5 t42 -54.5t61.5 -37t76 -13t77.5 13t63.5 37t42 54.5t15 67.5v180h-186q-86 0 -146.5 -49t-60.5 -131zM463 1282q0 35 26.5 59.5t61.5 24.5t61.5 -24.5t26.5 -59.5t-26.5 -60.5t-61.5 -25.5t-61.5 25.5t-26.5 60.5z" />
<glyph unicode="&#xe6;" horiz-adv-x="1521" d="M70 303q0 68 27.5 128.5t73.5 104.5t108.5 69.5t132.5 25.5h192q0 2 1 5t1 7q4 16 4 19q-2 98 -52 161.5t-120 67.5q-117 0 -245 -39l-37 143q72 20 143.5 31.5t140.5 11.5q82 -4 150.5 -49t111.5 -121q59 80 138.5 126t169.5 46q86 0 161.5 -39.5t131 -109.5t87 -164 t31.5 -205v-80h-667v-47q14 -55 41.5 -103t64.5 -85t80 -57.5t90 -20.5q31 0 65.5 7t69.5 19.5t69 27t60 26.5l60 -129q-63 -37 -132 -59.5t-139 -36.5q-12 -2 -25.5 -2h-27.5q-74 0 -142.5 28.5t-123.5 75.5q8 -23 23.5 -44.5t43.5 -41.5h-221v39q-43 -29 -93 -44t-105 -15 q-70 0 -132.5 25.5t-108.5 69.5t-73.5 102.5t-27.5 125.5zM219 303q0 -37 14.5 -67.5t41 -54t61.5 -37t76 -13.5t76.5 13.5t63.5 37t43 54t15 67.5v53q-12 53 -16 119v8h-182q-82 0 -137.5 -52t-55.5 -128zM756 586h516q-10 66 -34 122t-57.5 97t-77.5 63.5t-93 22.5 t-93.5 -22.5t-79 -63.5t-56 -96.5t-25.5 -122.5z" />
<glyph unicode="&#xe7;" horiz-adv-x="1009" d="M57 512q0 106 39 202.5t105.5 168t157 113.5t194.5 42t201.5 -50t175.5 -136l-103 -102q-59 66 -130.5 103.5t-143.5 37.5t-135.5 -30t-110.5 -81t-74.5 -120.5t-27.5 -147.5q0 -80 27.5 -148.5t74.5 -121t110.5 -82t135.5 -29.5q70 0 138.5 35t125.5 96l107 -100 q-66 -72 -151 -119t-175 -59q31 -14 61.5 -48t30.5 -79q0 -35 -29.5 -74t-101.5 -84l-145 115q20 2 44.5 6t46 9t37 11t15.5 13q0 23 -22.5 28.5t-38.5 5.5q-2 0 -4.5 -1t-6.5 -1h-43l4 109q-84 18 -155.5 65t-123.5 115t-81 154t-29 184z" />
<glyph unicode="&#xe8;" horiz-adv-x="933" d="M37 473v39q0 109 33.5 205t90 167.5t132.5 113.5t162 42q88 0 162.5 -39.5t130 -109.5t86 -164t30.5 -205v-80h-674q8 -68 33 -125t63 -98t87 -65.5t104 -24.5q29 0 63.5 7t69.5 19.5t69 27t62 26.5l58 -129q-66 -37 -133.5 -60.5t-135.5 -35.5q-12 -2 -27.5 -2h-25.5 q-86 0 -162.5 37.5t-137 104t-97.5 157t-43 192.5zM155 1294h240l174 -231h-119zM195 586h522q-8 66 -31.5 122t-58.5 97t-79 63.5t-93 22.5q-47 0 -89 -23.5t-77 -65.5t-59.5 -97.5t-34.5 -118.5z" />
<glyph unicode="&#xe9;" horiz-adv-x="933" d="M37 473v39q0 109 33.5 205t90 167.5t132.5 113.5t162 42q88 0 162.5 -39.5t130 -109.5t86 -164t30.5 -205v-80h-674q8 -68 33 -125t63 -98t87 -65.5t104 -24.5q29 0 63.5 7t69.5 19.5t69 27t62 26.5l58 -129q-66 -37 -133.5 -60.5t-135.5 -35.5q-12 -2 -27.5 -2h-25.5 q-86 0 -162.5 37.5t-137 104t-97.5 157t-43 192.5zM195 586h522q-8 66 -31.5 122t-58.5 97t-79 63.5t-93 22.5q-47 0 -89 -23.5t-77 -65.5t-59.5 -97.5t-34.5 -118.5zM363 1063l174 231h235l-291 -231h-118z" />
<glyph unicode="&#xea;" horiz-adv-x="933" d="M37 473v39q0 109 33.5 205t90 167.5t132.5 113.5t162 42q88 0 162.5 -39.5t130 -109.5t86 -164t30.5 -205v-80h-674q8 -68 33 -125t63 -98t87 -65.5t104 -24.5q29 0 63.5 7t69.5 19.5t69 27t62 26.5l58 -129q-66 -37 -133.5 -60.5t-135.5 -35.5q-12 -2 -27.5 -2h-25.5 q-86 0 -162.5 37.5t-137 104t-97.5 157t-43 192.5zM195 586h522q-8 66 -31.5 122t-58.5 97t-79 63.5t-93 22.5q-47 0 -89 -23.5t-77 -65.5t-59.5 -97.5t-34.5 -118.5zM203 1124l253 250l254 -252l-96 -96l-158 160l-161 -160z" />
<glyph unicode="&#xeb;" horiz-adv-x="933" d="M37 473v39q0 109 33.5 205t90 167.5t132.5 113.5t162 42q88 0 162.5 -39.5t130 -109.5t86 -164t30.5 -205v-80h-674q8 -68 33 -125t63 -98t87 -65.5t104 -24.5q29 0 63.5 7t69.5 19.5t69 27t62 26.5l58 -129q-66 -37 -133.5 -60.5t-135.5 -35.5q-12 -2 -27.5 -2h-25.5 q-86 0 -162.5 37.5t-137 104t-97.5 157t-43 192.5zM195 586h522q-8 66 -31.5 122t-58.5 97t-79 63.5t-93 22.5q-47 0 -89 -23.5t-77 -65.5t-59.5 -97.5t-34.5 -118.5zM241 1282q0 35 26.5 59.5t61.5 24.5t61.5 -24.5t26.5 -59.5t-26.5 -60.5t-61.5 -25.5t-61.5 25.5 t-26.5 60.5zM497 1282q0 35 26.5 59.5t61.5 24.5t62.5 -24.5t27.5 -59.5t-27.5 -60.5t-62.5 -25.5t-61.5 25.5t-26.5 60.5z" />
<glyph unicode="&#xec;" horiz-adv-x="432" d="M-53 1327h239l174 -231h-118zM158 0v1026h143v-1026h-143z" />
<glyph unicode="&#xed;" horiz-adv-x="432" d="M49 1096l174 231h236l-291 -231h-119zM100 0v1026h148v-1026h-148z" />
<glyph unicode="&#xee;" horiz-adv-x="362" d="M-70 1157l254 250l254 -252l-96 -96l-158 160l-161 -160zM100 0v1026h144v-1026h-144z" />
<glyph unicode="&#xef;" horiz-adv-x="362" d="M-4 1282q0 35 26.5 59.5t61.5 24.5t61.5 -24.5t26.5 -59.5t-26.5 -60.5t-61.5 -25.5t-61.5 25.5t-26.5 60.5zM100 0v1026h144v-1026h-144zM176 1282q0 35 25.5 59.5t64.5 24.5q35 0 61.5 -24.5t26.5 -59.5t-26.5 -60.5t-61.5 -25.5q-39 0 -64.5 25.5t-25.5 60.5z" />
<glyph unicode="&#xf0;" horiz-adv-x="1001" d="M59 958v13q0 88 34 167t92.5 137t137 93t169.5 35q88 0 163.5 -34t134 -92t95.5 -135t43 -163q4 -61 5 -134t1 -138v-52q0 -80 -5 -154.5t-20 -144.5q-16 -82 -57 -150.5t-102.5 -117.5t-137 -75.5t-157.5 -26.5q-102 0 -199.5 54t-167.5 142l131 109q49 -74 115.5 -114 t134.5 -40q117 0 198 73t105 179v-2q8 63 13.5 133t7.5 142q-59 -53 -137 -86t-169 -33q-86 0 -162.5 31.5t-135 88t-94.5 132t-36 163.5zM201 963q2 -57 26.5 -107.5t62.5 -87.5t89 -58.5t108 -21.5q61 0 113.5 22.5t92.5 61.5t62.5 91t22.5 112q0 57 -23.5 107.5t-62.5 88 t-91 60t-107 22.5q-61 0 -114.5 -23.5t-93.5 -63.5t-62.5 -93t-22.5 -110z" />
<glyph unicode="&#xf1;" horiz-adv-x="886" d="M12 1051h203v-66q49 49 105.5 69.5t130.5 20.5t137 -29.5t111.5 -82t77 -123t30.5 -150.5l4 -657h-147v657q0 49 -18.5 93t-49.5 76t-71 50.5t-85 18.5q-39 0 -75.5 -17.5t-66.5 -47t-51.5 -68.5t-31.5 -80v-682h-145v905q0 27 -20.5 61.5t-37.5 51.5zM121 1257 q41 29 95 47.5t114 18.5q35 0 52 -4t30 -8q4 -2 11 -4t13 -7h-2q31 -10 70 -10q35 0 76 16.5t73 45.5l62 -119q-47 -33 -103.5 -51.5t-109.5 -18.5q-74 0 -119 23q-27 10 -59 10q-35 0 -76 -17.5t-76 -39.5z" />
<glyph unicode="&#xf2;" horiz-adv-x="1079" d="M27 508q0 111 37.5 207t104.5 167.5t155 113.5t186 42q100 0 188 -42t152.5 -113.5t102.5 -168t38 -206.5q0 -109 -38 -205t-102.5 -168t-152.5 -113.5t-188 -41.5q-98 0 -186 41.5t-155 113.5t-104.5 168t-37.5 205zM176 508q0 -78 26.5 -147.5t71.5 -121t105.5 -81 t130.5 -29.5q68 0 128 29.5t105 81t72 121t27 147.5q0 80 -27 149.5t-72 121.5t-105 82t-128 30q-70 0 -130.5 -30t-105.5 -82t-71.5 -121.5t-26.5 -149.5zM229 1294h240l174 -231h-119z" />
<glyph unicode="&#xf3;" horiz-adv-x="1079" d="M27 508q0 111 37.5 207t104.5 167.5t155 113.5t186 42q100 0 188 -42t152.5 -113.5t102.5 -168t38 -206.5q0 -109 -38 -205t-102.5 -168t-152.5 -113.5t-188 -41.5q-98 0 -186 41.5t-155 113.5t-104.5 168t-37.5 205zM176 508q0 -78 26.5 -147.5t71.5 -121t105.5 -81 t130.5 -29.5q68 0 128 29.5t105 81t72 121t27 147.5q0 80 -27 149.5t-72 121.5t-105 82t-128 30q-70 0 -130.5 -30t-105.5 -82t-71.5 -121.5t-26.5 -149.5zM449 1063l174 231h235l-291 -231h-118z" />
<glyph unicode="&#xf4;" horiz-adv-x="1050" d="M27 508q0 111 37.5 207t104.5 167.5t155 113.5t186 42q100 0 188 -42t152.5 -113.5t102.5 -168t38 -206.5q0 -109 -38 -205t-102.5 -168t-152.5 -113.5t-188 -41.5q-98 0 -186 41.5t-155 113.5t-104.5 168t-37.5 205zM176 508q0 -78 26.5 -147.5t71.5 -121t105.5 -81 t130.5 -29.5q68 0 128 29.5t105 81t72 121t27 147.5q0 80 -27 149.5t-72 121.5t-105 82t-128 30q-70 0 -130.5 -30t-105.5 -82t-71.5 -121.5t-26.5 -149.5zM263 1124l253 250l254 -252l-96 -96l-158 160l-161 -160z" />
<glyph unicode="&#xf5;" horiz-adv-x="1050" d="M27 508q0 111 37.5 207t104.5 167.5t155 113.5t186 42q100 0 188 -42t152.5 -113.5t102.5 -168t38 -206.5q0 -109 -38 -205t-102.5 -168t-152.5 -113.5t-188 -41.5q-98 0 -186 41.5t-155 113.5t-104.5 168t-37.5 205zM176 508q0 -78 26.5 -147.5t71.5 -121t105.5 -81 t130.5 -29.5q68 0 128 29.5t105 81t72 121t27 147.5q0 80 -27 149.5t-72 121.5t-105 82t-128 30q-70 0 -130.5 -30t-105.5 -82t-71.5 -121.5t-26.5 -149.5zM234 1245q88 47 172 47q39 0 67.5 -7t53.5 -15q4 -2 8 -3t8 -3q23 -10 49.5 -18.5t57.5 -8.5q29 0 62.5 12.5 t66.5 32.5l43 -123q-39 -23 -85 -36t-87 -13t-92.5 15.5t-104.5 50.5l41 -25q-16 6 -37.5 10t-50.5 4q-27 0 -58.5 -11t-66.5 -32z" />
<glyph unicode="&#xf6;" horiz-adv-x="1079" d="M27 508q0 111 37.5 207t104.5 167.5t155 113.5t186 42q100 0 188 -42t152.5 -113.5t102.5 -168t38 -206.5q0 -109 -38 -205t-102.5 -168t-152.5 -113.5t-188 -41.5q-98 0 -186 41.5t-155 113.5t-104.5 168t-37.5 205zM176 508q0 -78 26.5 -147.5t71.5 -121t105.5 -81 t130.5 -29.5q68 0 128 29.5t105 81t72 121t27 147.5q0 80 -27 149.5t-72 121.5t-105 82t-128 30q-70 0 -130.5 -30t-105.5 -82t-71.5 -121.5t-26.5 -149.5zM325 1282q0 35 26.5 59.5t61.5 24.5t61.5 -24.5t26.5 -59.5t-26.5 -60.5t-61.5 -25.5t-61.5 25.5t-26.5 60.5z M581 1282q0 35 26.5 59.5t61.5 24.5t62.5 -24.5t27.5 -59.5t-27.5 -60.5t-62.5 -25.5t-61.5 25.5t-26.5 60.5z" />
<glyph unicode="&#xf7;" horiz-adv-x="870" d="M63 557v148h730v-148h-730zM322 268v191h190v-191h-190zM322 741v191h190v-191h-190z" />
<glyph unicode="&#xf8;" horiz-adv-x="1050" d="M27 508q0 111 37.5 207t104.5 167.5t155 113.5t186 42q104 0 199.5 -51t171.5 -137l-115 -100q-57 66 -124 103.5t-132 37.5q-70 0 -130.5 -30t-105.5 -82t-71.5 -121.5t-26.5 -149.5q0 -51 12.5 -104.5t40.5 -104.5l-112 -100q-41 78 -65.5 154.5t-24.5 154.5zM123 193 l108 100q55 -76 128 -120t151 -44q68 0 128 29.5t105 81t72 121t27 147.5q0 117 -76 237l117 99q49 -78 78.5 -164t29.5 -172q0 -109 -38 -205t-102.5 -168t-152.5 -113.5t-188 -41.5q-111 0 -211 57t-176 156z" />
<glyph unicode="&#xf9;" horiz-adv-x="921" d="M74 365v657h145v-643l2 -10q2 -47 20.5 -90t49.5 -76t70.5 -51.5t84.5 -18.5q39 0 75 18.5t65.5 48t50 67.5t29.5 79v680h147v-899q0 -31 19.5 -70t37.5 -57h-204v74q-47 -43 -105.5 -67.5t-128.5 -24.5q-72 0 -134 29.5t-110.5 79.5t-77 119t-30.5 148zM153 1294h240 l174 -231h-119z" />
<glyph unicode="&#xfa;" horiz-adv-x="921" d="M74 365v657h145v-643l2 -10q2 -47 20.5 -90t49.5 -76t70.5 -51.5t84.5 -18.5q39 0 75 18.5t65.5 48t50 67.5t29.5 79v680h147v-899q0 -31 19.5 -70t37.5 -57h-204v74q-47 -43 -105.5 -67.5t-128.5 -24.5q-72 0 -134 29.5t-110.5 79.5t-77 119t-30.5 148zM340 1063 l174 231h235l-291 -231h-118z" />
<glyph unicode="&#xfb;" horiz-adv-x="921" d="M74 365v657h145v-643l2 -10q2 -47 20.5 -90t49.5 -76t70.5 -51.5t84.5 -18.5q39 0 75 18.5t65.5 48t50 67.5t29.5 79v680h147v-899q0 -31 19.5 -70t37.5 -57h-204v74q-47 -43 -105.5 -67.5t-128.5 -24.5q-72 0 -134 29.5t-110.5 79.5t-77 119t-30.5 148zM197 1124 l253 250l254 -252l-96 -96l-158 160l-161 -160z" />
<glyph unicode="&#xfc;" horiz-adv-x="921" d="M74 365v657h145v-643l2 -10q2 -47 20.5 -90t49.5 -76t70.5 -51.5t84.5 -18.5q39 0 75 18.5t65.5 48t50 67.5t29.5 79v680h147v-899q0 -31 19.5 -70t37.5 -57h-204v74q-47 -43 -105.5 -67.5t-128.5 -24.5q-72 0 -134 29.5t-110.5 79.5t-77 119t-30.5 148zM235 1282 q0 35 26.5 59.5t61.5 24.5t61.5 -24.5t26.5 -59.5t-26.5 -60.5t-61.5 -25.5t-61.5 25.5t-26.5 60.5zM491 1282q0 35 26.5 59.5t61.5 24.5t62.5 -24.5t27.5 -59.5t-27.5 -60.5t-62.5 -25.5t-61.5 25.5t-26.5 60.5z" />
<glyph unicode="&#xfd;" horiz-adv-x="1095" d="M82 -369l22 170q29 -31 50.5 -36t38.5 -5q59 0 115.5 40t84.5 118q10 25 18.5 47.5t18.5 46.5q10 23 17.5 42.5t17.5 41.5q-14 35 -28.5 71t-26.5 71q-37 88 -80 192.5t-86 211t-85 208.5t-77 188h158l299 -753q47 119 95 240.5t97 244.5q25 66 52.5 136.5t54.5 131.5 h157l-385 -950q-10 -23 -17 -45.5t-18 -44.5q-10 -31 -25 -64.5t-26 -68.5q-23 -59 -59.5 -105.5t-81.5 -79t-94 -49t-99 -16.5q-47 0 -108 16zM469 1063l174 231h235l-291 -231h-118z" />
<glyph unicode="&#xfe;" horiz-adv-x="1058" d="M104 -377v1774h150v-406q51 25 112.5 38t137.5 13q104 -2 194 -45t157 -113.5t105.5 -165.5t38.5 -202q0 -111 -38.5 -209t-105.5 -169.5t-157 -113.5t-194 -42q-78 0 -138.5 16t-113.5 39v-414h-148zM248 815l6 -604q-2 -16 17.5 -29.5t53 -25t80 -17.5t99.5 -8 q70 2 133 32t111.5 82t76 120.5t27.5 148.5q0 76 -27.5 144.5t-76 120.5t-112 83t-132.5 31q-96 0 -168 -23.5t-88 -54.5z" />
<glyph unicode="&#xff;" horiz-adv-x="1095" d="M82 -369l22 170q29 -31 50.5 -36t38.5 -5q59 0 115.5 40t84.5 118q10 25 18.5 47.5t18.5 46.5q10 23 17.5 42.5t17.5 41.5q-14 35 -28.5 71t-26.5 71q-37 88 -80 192.5t-86 211t-85 208.5t-77 188h158l299 -753q47 119 95 240.5t97 244.5q25 66 52.5 136.5t54.5 131.5 h157l-385 -950q-10 -23 -17 -45.5t-18 -44.5q-10 -31 -25 -64.5t-26 -68.5q-23 -59 -59.5 -105.5t-81.5 -79t-94 -49t-99 -16.5q-47 0 -108 16zM344 1282q0 35 26.5 59.5t61.5 24.5t61.5 -24.5t26.5 -59.5t-26.5 -60.5t-61.5 -25.5t-61.5 25.5t-26.5 60.5zM600 1282 q0 35 26.5 59.5t61.5 24.5t62.5 -24.5t27.5 -59.5t-27.5 -60.5t-62.5 -25.5t-61.5 25.5t-26.5 60.5z" />
<glyph unicode="&#x152;" horiz-adv-x="2162" d="M51 707q0 150 50.5 279.5t138.5 227t205.5 153.5t250.5 56q162 0 286 -61.5t214 -190.5v244h846v-145h-699v-445h596v-149h-596v-526h699v-150h-846v242q-26 -37 -51 -62q-88 -96 -202 -147t-247 -51q-129 0 -245.5 55t-205.5 152.5t-141.5 230.5t-52.5 287zM203 707 q0 -119 38 -223.5t104.5 -182.5t156.5 -123t194 -45q98 0 183.5 42t152 113.5t109.5 167t55 201.5v97q-10 113 -51 205.5t-107 162.5q-66 72 -153.5 111t-188.5 39q-102 0 -192 -44t-156.5 -121t-105.5 -179.5t-39 -220.5z" />
<glyph unicode="&#x153;" horiz-adv-x="1802" d="M39 508q0 111 38 207t104.5 167.5t154.5 113.5t188 42q125 0 232.5 -69.5t173.5 -177.5q53 117 145 183t209 66q86 0 162 -39.5t131 -109.5t87 -164t32 -205v-80h-678q8 -68 33.5 -125t63.5 -98t86.5 -65.5t103.5 -24.5q31 0 65.5 7t69.5 19.5t68.5 27t60.5 26.5l59 -129 q-63 -37 -130.5 -59.5t-139.5 -36.5q-10 -2 -24.5 -2h-28.5q-121 0 -216.5 68.5t-154.5 182.5q-66 -113 -173.5 -183t-236.5 -70q-100 0 -188 41.5t-154.5 113.5t-104.5 168t-38 205zM186 508q0 -78 27 -147.5t73 -121t107.5 -81t130.5 -29.5q68 0 128.5 29.5t104.5 81 t70.5 121t26.5 147.5q0 80 -26.5 149.5t-70.5 121.5t-104.5 82t-128.5 30q-70 0 -131 -30t-107 -82t-73 -121.5t-27 -149.5zM1022 586h524q-10 66 -33.5 122t-57.5 97t-78 63.5t-93 22.5q-47 0 -89 -23.5t-77 -65.5t-59.5 -97.5t-36.5 -118.5z" />
<glyph unicode="&#x178;" horiz-adv-x="1394" d="M20 1415h195l463 -635q31 41 61.5 82t61.5 84q84 115 173 236t175 233h192l-585 -782v-633h-152v633q-37 49 -79 106.5t-83 110.5q-49 66 -105 140.5t-111.5 148t-107.5 145.5t-98 131zM471 1493q0 35 26.5 59.5t61.5 24.5t61.5 -24.5t26.5 -59.5t-26.5 -60.5 t-61.5 -25.5t-61.5 25.5t-26.5 60.5zM727 1493q0 35 26.5 59.5t61.5 24.5t62.5 -24.5t27.5 -59.5t-27.5 -60.5t-62.5 -25.5t-61.5 25.5t-26.5 60.5z" />
<glyph unicode="&#x2c6;" horiz-adv-x="548" d="M23 1124l253 250l254 -252l-96 -96l-158 160l-161 -160z" />
<glyph unicode="&#x2dc;" horiz-adv-x="684" d="M35 1245q88 47 172 47q39 0 67.5 -7t53.5 -15q4 -2 8 -3t8 -3q23 -10 49.5 -18.5t57.5 -8.5q29 0 62.5 12.5t66.5 32.5l43 -123q-39 -23 -85 -36t-87 -13t-92.5 15.5t-104.5 50.5l41 -25q-16 6 -37.5 10t-50.5 4q-27 0 -58.5 -11t-66.5 -32z" />
<glyph unicode="&#x2000;" horiz-adv-x="848" />
<glyph unicode="&#x2001;" horiz-adv-x="1696" />
<glyph unicode="&#x2002;" horiz-adv-x="848" />
<glyph unicode="&#x2003;" horiz-adv-x="1696" />
<glyph unicode="&#x2004;" horiz-adv-x="565" />
<glyph unicode="&#x2005;" horiz-adv-x="424" />
<glyph unicode="&#x2006;" horiz-adv-x="282" />
<glyph unicode="&#x2007;" horiz-adv-x="282" />
<glyph unicode="&#x2008;" horiz-adv-x="212" />
<glyph unicode="&#x2009;" horiz-adv-x="339" />
<glyph unicode="&#x200a;" horiz-adv-x="94" />
<glyph unicode="&#x2010;" horiz-adv-x="862" d="M61 524v148h730v-148h-730z" />
<glyph unicode="&#x2011;" horiz-adv-x="862" d="M61 524v148h730v-148h-730z" />
<glyph unicode="&#x2012;" horiz-adv-x="862" d="M61 524v148h730v-148h-730z" />
<glyph unicode="&#x2013;" horiz-adv-x="851" d="M61 524v148h730v-148h-730z" />
<glyph unicode="&#x2014;" horiz-adv-x="1089" d="M66 524v148h948v-148h-948z" />
<glyph unicode="&#x2018;" horiz-adv-x="307" d="M37 1174l106 229l68 -33l-21 -160l60 -129l-144 -63z" />
<glyph unicode="&#x2019;" horiz-adv-x="325" d="M33 1094l67 143l-16 145l158 13l18 -164l-176 -189z" />
<glyph unicode="&#x201a;" horiz-adv-x="352" d="M41 -86l80 129v147h158v-172l-197 -170z" />
<glyph unicode="&#x201c;" horiz-adv-x="446" d="M41 1231l18 164l158 -13l-18 -145q14 -29 26.5 -55.5t26.5 -55.5q0 -4 5 -17t7 -17l-47 -50zM182 1231l17 164l159 -13l-18 -145q14 -29 25.5 -55.5t25.5 -55.5q2 -4 7 -17t8 -17l-48 -50z" />
<glyph unicode="&#x201d;" horiz-adv-x="485" d="M35 1094l67 143l-18 145l160 13l16 -164l-176 -189zM176 1094l68 143l-19 145l158 13l18 -164l-176 -189z" />
<glyph unicode="&#x201e;" horiz-adv-x="473" d="M25 -84l77 131l-4 146h160v-166l-195 -174zM166 -86l80 131v148h155v-173l-196 -172z" />
<glyph unicode="&#x2022;" horiz-adv-x="428" d="M59 770q0 31 12.5 58.5t34 49t49 34t58.5 12.5t58.5 -12.5t49 -34t34 -49t12.5 -58.5q0 -29 -12.5 -55.5t-34 -47t-49 -32.5t-58.5 -12t-58.5 12t-49 32.5t-34 47t-12.5 55.5z" />
<glyph unicode="&#x2026;" horiz-adv-x="890" d="M63 0v190h189v-190h-189zM342 0v190h188v-190h-188zM621 0v190h188v-190h-188z" />
<glyph unicode="&#x202f;" horiz-adv-x="339" />
<glyph unicode="&#x2039;" horiz-adv-x="720" d="M55 510l516 518l105 -102l-412 -416q88 -92 191 -191q53 -53 111.5 -110t109.5 -107l-103 -106z" />
<glyph unicode="&#x203a;" horiz-adv-x="702" d="M55 102l416 408q-100 100 -206.5 207.5t-209.5 208.5l107 102l514 -518l-516 -514z" />
<glyph unicode="&#x205f;" horiz-adv-x="424" />
<glyph unicode="&#x20ac;" horiz-adv-x="1525" d="M70 502v147h186q-2 10 -1 22.5t1 16.5q0 20 1 38.5t3 35.5v4h-190v147h219q33 106 95 196.5t145 156t183.5 101.5t209.5 36q150 0 280.5 -68.5t235.5 -179.5l-105 -106q-88 94 -190.5 148t-220.5 54q-78 0 -152 -25.5t-135.5 -70.5t-110.5 -106.5t-78 -135.5h644v-147 h-680q-4 -18 -4 -36.5v-41.5v-11t2 -18v-10h682v-147h-650q27 -78 76 -145.5t112.5 -117t138.5 -78t155 -28.5q117 0 219 56.5t190 158.5l107 -119q-104 -111 -235.5 -179t-280.5 -68q-117 0 -221.5 38.5t-188.5 107.5t-143.5 164t-87.5 210h-211z" />
<glyph unicode="&#x2122;" horiz-adv-x="854" d="M39 1255v123h354v-123h-112v-333h-127v333h-115zM362 922v456h103l88 -145q18 33 41 67q4 4 9 13.5t9 19.5q6 10 15.5 23.5t13.5 21.5h100v-456h-125v182q-8 -16 -16 -30.5t-12 -24.5h-72l-27 45v-172h-127z" />
<glyph unicode="&#xe000;" horiz-adv-x="1024" d="M0 0v1024h1024v-1024h-1024z" />
<glyph unicode="&#xfb01;" horiz-adv-x="1034" d="M51 856v150h144q-2 0 -2 2v4v6v26q4 72 30.5 137.5t68.5 115t97 78t117 28.5q23 0 50.5 -1t86.5 -9l-45 -150q-39 10 -58.5 11t-33.5 1q-70 -4 -119 -69.5t-49 -163.5v-16h250v-1006h-144v856h-106v-856h-141v856h-146z" />
<glyph unicode="&#xfb02;" horiz-adv-x="1003" d="M49 856v150h146q-2 0 -2 2v4v6v26q2 74 28.5 139.5t68.5 114t97 76t119 29.5h127v-1403h-152v856h-143v-856h-141v856h-148zM338 1006h143v247q-59 -14 -101 -79.5t-42 -151.5v-16zM481 1276l25 -21h57l-82 82v-61z" />
</font>
</defs>
</svg>
